<svg width="37" height="32" viewBox="0 0 37 32" fill="none" xmlns="http://www.w3.org/2000/svg">
<path d="M9.28881 5.24627L9.28922 5.24583C9.54875 4.9736 9.76997 4.58493 9.97226 4.20426C10.0389 4.07891 10.1044 3.95244 10.1705 3.82485C10.3177 3.54089 10.4677 3.25134 10.639 2.95604C11.1337 2.10305 11.7172 1.36746 12.557 1.04561C12.9896 0.879994 13.8112 0.739055 14.8843 0.642659C15.9399 0.547843 17.1882 0.5 18.4405 0.5C19.6928 0.5 20.941 0.547843 21.9963 0.642658C23.0693 0.739057 23.8903 0.879994 24.3224 1.04555C25.1623 1.36741 25.7464 2.10315 26.2416 2.95622C26.4132 3.25169 26.5635 3.54145 26.7109 3.82558C26.777 3.95299 26.8425 4.07927 26.909 4.20443C27.1115 4.58508 27.3328 4.97367 27.5923 5.24583C28.5303 6.22975 29.8515 6.55814 30.6077 6.55814C33.8146 6.55814 36.3815 9.05636 36.3815 12.0961V23.2182C36.3815 27.3962 32.8556 30.8175 28.4686 30.8175H8.41298C4.02404 30.8175 0.5 27.3963 0.5 23.2182V12.0961C0.5 9.05636 3.06694 6.55814 6.27385 6.55814C7.02832 6.55814 8.3491 6.2296 9.28881 5.24627Z" fill="#7B8490" fill-opacity="0.06" stroke="#C8C8C8"/>
<mask id="path-2-inside-1_395_7165" fill="white">
<path fill-rule="evenodd" clip-rule="evenodd" d="M29.396 11.0361H29.414H29.396Z"/>
</mask>
<path fill-rule="evenodd" clip-rule="evenodd" d="M29.396 11.0361H29.414H29.396Z" fill="#7B8490" fill-opacity="0.06"/>
<path d="M29.396 12.0361H29.414V10.0361H29.396V12.0361Z" fill="#C8C8C8" mask="url(#path-2-inside-1_395_7165)"/>
<path d="M18.4402 12.3979C21.6829 12.3979 24.2778 14.9229 24.2778 17.9992C24.2778 21.0755 21.6829 23.6005 18.4402 23.6005C15.1975 23.6005 12.6025 21.0755 12.6025 17.9992C12.6025 14.9229 15.1975 12.3979 18.4402 12.3979Z" fill="#7B8490" fill-opacity="0.06" stroke="#C8C8C8"/>
</svg>
