<svg width="375" height="450" viewBox="0 0 375 450" fill="none" xmlns="http://www.w3.org/2000/svg">
<mask id="mask0_132_71" style="mask-type:alpha" maskUnits="userSpaceOnUse" x="0" y="0" width="375" height="450">
<rect width="375" height="450" fill="#ffffff"/>
</mask>
<g mask="url(#mask0_132_71)">
<g opacity="0.2">
<path d="M289.721 76.0707C289.663 76.129 289.604 76.1874 289.487 76.3042C289.254 76.5378 289.079 76.8297 288.787 77.1217L288.67 77.2385L288.553 77.3553C288.32 77.7056 288.028 77.9976 287.794 78.3479C287.56 78.6983 287.385 79.107 287.21 79.5158C286.977 79.9829 286.86 80.45 286.801 80.8588L286.801 80.9756V81.0923C286.509 81.6179 286.509 82.2018 286.568 82.7273C286.626 83.0193 286.626 83.3696 286.685 83.6616L286.685 83.7783L286.685 84.0119C286.743 84.4207 286.801 84.9462 286.86 85.4717C286.918 85.7637 287.035 86.114 287.21 86.5228C287.502 87.2818 287.911 87.9242 288.378 88.6249C288.553 88.9168 288.728 89.2088 288.903 89.5007C289.137 89.8511 289.371 90.2014 289.663 90.6102C289.954 91.0189 290.188 91.3693 290.48 91.6612C290.714 91.8948 290.947 92.1283 291.297 92.4787C291.94 93.0042 292.582 93.5297 293.458 94.0553C294.1 94.464 294.859 94.756 295.618 95.1647C295.91 95.3399 296.202 95.3983 296.553 95.5151L296.728 95.5735L296.903 95.6318C297.312 95.807 297.662 95.9238 298.071 96.099C298.772 96.3325 299.647 96.6245 300.582 96.8581C301.399 97.0916 302.217 97.2084 303.093 97.3836C304.027 97.5004 304.961 97.6172 305.837 97.6755C306.713 97.7339 307.706 97.7923 308.523 97.7923C309.983 97.8507 311.501 97.7339 312.961 97.6756L313.661 97.6756C315.296 97.5588 316.99 97.3836 318.858 97.15C319.559 97.0332 320.318 96.9749 321.019 96.8581L321.428 96.7997C321.836 96.7413 322.187 96.7413 322.537 96.6245L322.654 96.6245L322.771 96.6245C323.121 96.6245 323.471 96.5077 323.88 96.4493C324.23 96.4493 324.522 96.3909 324.931 96.3325C325.457 96.2742 325.982 96.2158 326.449 96.2158C327.384 96.099 328.201 95.9822 329.077 95.807C329.544 95.6902 330.011 95.6902 330.361 95.6902H330.712C331.004 95.6318 331.237 95.6318 331.529 95.5735C332.464 95.4567 333.339 95.3983 334.099 95.3399L334.332 95.3399L334.449 95.3399C334.741 95.2815 335.033 95.3399 335.325 95.2815C335.792 95.2815 336.201 95.2231 336.668 95.2231C337.018 95.2231 337.368 95.2231 337.719 95.2231L337.952 95.2231C338.42 95.2231 338.887 95.2231 339.354 95.2231C339.938 95.2231 340.522 95.2231 341.047 95.1647H341.981C342.098 95.1647 342.215 95.1647 342.39 95.1063L342.507 95.1063C342.741 95.1063 342.974 95.1063 343.208 95.1063C343.324 95.1063 343.441 95.1063 343.558 95.1063C343.792 95.1063 344.142 95.1063 344.375 95.1063C344.726 95.1063 345.076 94.9895 345.368 94.6976C345.543 94.5224 345.66 94.2888 345.66 93.9385C345.66 93.5881 345.427 93.3546 345.251 93.1794C345.193 93.121 345.076 93.0042 345.018 92.9458C344.959 92.8874 344.959 92.8874 344.901 92.829L344.784 92.7123C344.784 92.7123 344.726 92.6539 344.784 92.5955C344.726 92.4203 344.609 92.3035 344.434 92.1283C342.916 91.0773 341.456 90.2014 340.171 89.5007C338.653 88.6832 337.193 87.9242 335.617 87.0483C335.208 86.8731 334.799 86.5811 334.39 86.406C334.332 86.3476 334.157 86.2892 334.099 86.2308L334.04 86.1724C333.807 86.0556 333.573 85.9388 333.339 85.8221C332.464 85.2965 331.704 84.8878 330.887 84.5374L330.712 84.479C330.011 84.1287 329.31 83.7783 328.668 83.3696C327.909 82.9609 327.15 82.5521 326.391 82.1434C324.697 81.2675 322.887 80.3916 321.72 79.8077L321.544 79.7493C320.844 79.399 320.143 79.0486 319.325 78.6983C318.683 78.4063 317.924 78.1144 316.931 77.7056C316.172 77.4137 315.296 77.0049 314.421 76.713C313.72 76.4794 312.961 76.1874 312.318 76.0123L311.851 75.8955C311.092 75.6035 310.216 75.3116 309.282 75.078C308.581 74.8444 307.764 74.6109 306.83 74.3773C305.837 74.0853 305.02 73.9686 304.144 73.7934C303.385 73.6182 302.625 73.5598 301.691 73.443C301.574 73.443 301.458 73.443 301.399 73.3846C301.049 73.3846 300.64 73.3262 300.231 73.2679C299.823 73.2095 299.356 73.2095 298.888 73.2095C298.071 73.2095 297.195 73.2679 296.378 73.3846C295.735 73.443 295.035 73.5598 294.159 73.735C293.867 73.7934 293.516 73.9102 293.224 73.9686C292.874 74.0853 292.465 74.2605 292.115 74.3773C291.414 74.7276 290.772 75.2532 290.246 75.6619C290.013 75.7787 289.838 75.9539 289.721 76.0707Z" fill="#1FA366"/>
<path d="M326.333 49.5025C326.216 49.6193 326.157 49.6776 326.099 49.736C325.749 50.2032 325.457 50.6119 325.223 51.079C324.99 51.4294 324.873 51.7797 324.756 52.1301L324.698 52.3053C324.522 52.714 324.464 53.1227 324.289 53.5315C324.172 53.8818 323.997 54.4074 323.997 54.8745C323.939 55.6336 323.939 56.4511 323.997 57.3269C324.055 58.2028 324.23 59.0787 324.464 59.8962C324.639 60.5385 324.873 61.4728 325.223 62.2902C325.573 63.1077 325.924 63.9252 326.333 64.8011C326.625 65.4434 326.975 66.1441 327.325 66.728L327.442 66.9616C327.851 67.8374 328.318 68.5381 328.668 69.1221L329.019 69.706C329.311 70.2315 329.661 70.8154 330.011 71.3993C330.478 72.1 330.887 72.8591 331.354 73.5598C331.646 73.9686 331.938 74.3773 332.23 74.786C332.405 75.078 332.639 75.3116 332.872 75.6619C333.048 75.9539 333.281 76.1874 333.456 76.4794C333.748 76.8881 334.04 77.2969 334.332 77.7056C334.624 78.1144 334.916 78.5231 335.15 78.8734C335.266 78.9902 335.325 79.1654 335.383 79.2238C335.5 79.4574 335.617 79.5741 335.792 79.7493C336.084 80.1581 336.376 80.5668 336.726 80.9172C337.018 81.2091 337.252 81.5595 337.485 81.793L337.602 81.9098C337.836 82.1434 338.128 82.4353 338.361 82.6689C338.712 83.0193 339.062 83.2528 339.412 83.6032C340.639 84.7126 341.923 85.8804 343.208 87.0483C343.558 87.3986 343.908 87.749 344.317 88.0409C344.551 88.2745 344.843 88.5665 345.135 88.7416C345.66 89.2672 346.244 89.7343 347.003 90.3766C347.47 90.7269 347.937 91.1941 348.405 91.5444C348.638 91.778 348.988 92.0116 349.222 92.2451C349.397 92.4203 349.572 92.5955 349.748 92.6539C350.215 93.0042 350.682 93.4713 351.149 93.8217C351.207 94.1137 351.441 94.3472 351.791 94.464C352.083 94.5224 352.317 94.4056 352.492 94.3472C352.55 94.2888 352.609 94.2304 352.726 94.2304L352.784 94.1721C352.842 94.1137 352.901 94.0553 352.901 94.0553C352.959 93.9969 353.018 93.9385 353.076 93.8801C353.193 93.7633 353.193 93.6465 353.251 93.4714C353.368 93.2378 353.368 93.0042 353.368 92.7707L353.426 92.7123C353.485 92.1867 353.426 91.6612 353.368 91.1357L353.368 90.9021L353.368 90.7853C353.368 90.6686 353.309 90.6102 353.368 90.5518L353.368 90.3182C353.368 90.2014 353.368 90.0846 353.309 89.9095C353.309 89.5591 353.193 89.2088 353.134 88.8C353.076 88.6249 353.018 88.4497 353.018 88.2161C352.959 88.0409 352.959 87.8074 352.901 87.6322C352.784 87.2818 352.784 86.9315 352.667 86.5811C352.609 86.1724 352.55 85.7637 352.434 85.4133C352.317 84.8294 352.142 84.3039 352.025 83.72C351.966 83.5448 351.908 83.2528 351.85 83.0777C351.791 82.9025 351.733 82.6105 351.733 82.377C351.616 81.793 351.499 81.2091 351.266 80.6252L351.207 80.3332C350.799 78.8734 350.39 77.4137 349.923 75.8955C349.748 75.37 349.514 74.786 349.397 74.2021L349.105 73.443C349.047 73.1511 348.872 72.8591 348.813 72.5672C348.638 72.0416 348.463 71.5161 348.288 70.9906C348.171 70.5234 347.996 70.1147 347.821 69.5892C347.412 68.363 347.003 67.1367 346.536 65.9689C345.894 64.3923 345.193 62.7574 344.434 61.064C344.084 60.3633 343.733 59.5458 343.325 58.7867C342.857 57.9693 342.39 57.2686 341.923 56.4511C341.398 55.692 340.93 54.9913 340.522 54.349C340.113 53.8234 339.763 53.2395 339.354 52.714L339.062 52.3053C338.77 51.8965 338.478 51.4878 338.128 51.1374L338.069 51.079C337.836 50.7287 337.544 50.4367 337.31 50.2032C337.135 50.028 336.901 49.7944 336.726 49.6193C336.318 49.2105 335.85 48.8602 335.208 48.4514C334.799 48.1595 334.274 47.8675 333.748 47.6923C333.398 47.5755 332.931 47.4588 332.464 47.342C331.763 47.2252 331.004 47.2836 330.303 47.4004C329.894 47.4588 329.544 47.5755 329.135 47.7507L328.96 47.8091C328.902 47.8675 328.785 47.8675 328.727 47.9259L328.668 47.9843L328.61 48.0427C328.551 48.1011 328.493 48.0427 328.435 48.1011C328.201 48.2179 328.026 48.2762 327.851 48.4514C327.676 48.5098 327.559 48.6266 327.384 48.8018C326.8 49.0353 326.566 49.2689 326.333 49.5025Z" fill="#1FA366"/>
<path d="M315.53 109.12C315.18 109.471 314.829 109.821 314.421 110.23C314.129 110.522 313.837 110.814 313.545 111.222C313.253 111.514 313.019 111.865 312.786 112.215L312.727 112.273C312.202 112.916 311.676 113.675 311.268 114.434C310.8 115.251 310.392 116.011 310.158 116.828C309.808 117.762 309.691 118.58 309.633 119.339C309.633 119.806 309.633 120.273 309.749 120.74C309.866 121.207 310.041 121.616 310.392 122.083C310.917 122.842 311.676 123.368 312.377 123.952C312.669 124.127 312.961 124.302 313.253 124.477C313.603 124.594 313.895 124.769 314.187 124.828C314.479 124.886 314.771 124.944 315.005 124.944C315.53 125.003 315.997 124.886 316.406 124.828C316.815 124.769 317.282 124.536 317.691 124.361C318.041 124.244 318.333 124.069 318.742 123.777C319.267 123.485 319.734 123.134 320.201 122.784C320.318 122.667 320.493 122.609 320.61 122.492C321.252 122.083 321.895 121.558 322.42 121.149L322.712 120.974C323.121 120.682 323.588 120.332 323.997 120.04C324.172 119.864 324.464 119.689 324.698 119.572C325.048 119.339 325.457 119.047 325.749 118.755C326.216 118.405 326.683 118.054 327.15 117.704L327.559 117.412C328.084 117.003 328.785 116.536 329.486 116.069C329.894 115.777 330.362 115.543 330.77 115.251C331.062 115.076 331.296 114.959 331.588 114.784C333.106 113.85 334.449 113.091 335.675 112.332C335.967 112.157 336.376 111.981 336.668 111.806L336.726 111.748C336.901 111.69 336.96 111.631 337.135 111.573C337.369 111.456 337.602 111.339 337.894 111.164C338.069 111.106 338.128 111.047 338.303 110.989C338.536 110.872 338.712 110.814 338.945 110.697C339.179 110.58 339.412 110.463 339.646 110.347C339.821 110.288 339.938 110.171 340.113 110.113C340.347 109.996 340.522 109.938 340.755 109.821C340.93 109.763 341.047 109.646 341.222 109.587C341.631 109.412 341.923 109.237 342.332 109.062L342.565 108.945C342.799 108.828 343.091 108.653 343.383 108.595C343.616 108.478 343.908 108.42 344.2 108.244L344.609 108.069C344.843 107.952 345.193 107.836 345.427 107.719C345.835 107.544 346.361 107.369 346.77 107.193C347.937 106.726 348.989 106.142 350.04 105.675L350.682 105.383C351.149 105.15 351.616 104.916 352.025 104.624C352.258 104.507 352.375 104.391 352.609 104.274C353.193 103.923 353.777 103.573 354.477 103.106C354.594 102.989 354.769 102.931 354.886 102.814C355.47 102.464 355.995 102.055 356.521 101.646C356.638 101.529 356.871 101.413 356.988 101.296L357.105 101.179C357.28 101.004 357.514 100.887 357.63 100.77C357.689 100.712 357.747 100.654 357.864 100.537C357.922 100.478 357.981 100.42 358.039 100.362L358.156 100.245C358.214 100.186 358.273 100.128 358.331 100.07C358.448 99.9528 358.565 99.836 358.565 99.7193C358.623 99.6609 358.565 99.6025 358.623 99.5441C358.74 99.3105 358.74 99.077 358.623 98.8434C358.565 98.6682 358.331 98.5514 358.156 98.493C357.981 98.4346 357.806 98.493 357.63 98.5514C357.514 98.5514 357.339 98.6098 357.28 98.6682C357.222 98.7266 357.163 98.785 357.047 98.785C356.813 98.785 356.579 98.785 356.346 98.785C356.229 98.785 356.112 98.785 355.996 98.785H355.645C355.295 98.785 355.061 98.785 354.711 98.785C354.361 98.785 354.01 98.785 353.66 98.785C353.193 98.785 352.726 98.785 352.317 98.7266C351.441 98.6682 350.565 98.7266 349.864 98.7266C349.397 98.7266 348.988 98.785 348.58 98.7266C348.171 98.6682 347.762 98.7266 347.354 98.6682C345.427 98.6098 343.792 98.6098 342.332 98.6682H342.098C341.339 98.7266 340.639 98.7266 339.879 98.785C339.646 98.785 339.412 98.785 339.237 98.8434C338.595 98.9018 337.952 98.9602 337.31 99.0186C337.077 99.0186 336.785 99.0769 336.493 99.1353C336.318 99.1937 336.084 99.1937 335.909 99.2521C335.5 99.3105 335.091 99.3689 334.683 99.4273C333.982 99.5441 333.223 99.7193 332.58 99.8944L332.347 99.8944C331.529 100.128 330.654 100.303 329.836 100.537C329.486 100.654 329.077 100.712 328.727 100.829L328.551 100.887C328.201 101.004 327.851 101.121 327.5 101.237C326.566 101.588 325.69 101.997 324.931 102.288C324.172 102.697 323.413 103.106 322.771 103.398C322.07 103.748 321.486 104.215 320.844 104.624L320.727 104.741C320.026 105.208 319.384 105.734 318.566 106.318L318.508 106.376C318.158 106.609 317.924 106.843 317.632 107.135C317.34 107.427 316.932 107.719 316.64 108.011C315.997 108.653 315.764 108.887 315.53 109.12ZM322.304 118.93L322.595 118.755L322.304 118.93Z" fill="#1FA366"/>
<path d="M365.864 54.9329C365.28 55.5168 364.754 56.1591 364.346 56.8014C363.762 57.6189 363.294 58.3196 363.003 58.9619C362.594 59.8378 362.243 60.7721 362.01 61.5895C361.718 62.3486 361.601 63.1661 361.426 63.9252L361.368 64.1004C361.309 64.5091 361.251 64.9179 361.134 65.385C361.076 65.7937 361.076 66.2609 361.017 66.6696C360.959 67.6623 360.959 68.7133 360.959 69.5308C360.959 70.3483 360.959 71.1658 360.959 71.9832L360.959 72.2168C360.959 73.0343 361.017 73.7934 361.076 74.5525L361.076 74.6693C361.134 75.5451 361.251 76.3626 361.368 77.1801C361.543 78.8735 361.893 80.6252 362.243 82.4937C362.36 83.1944 362.535 83.8367 362.711 84.4791L362.827 84.8294C363.003 85.4717 363.119 86.1724 363.294 86.8147L363.411 87.2818C363.586 88.0409 363.762 88.6833 363.937 89.4423L363.995 89.7343C364.17 90.4934 364.404 91.4277 364.754 92.3619C364.988 93.0626 365.221 93.8801 365.572 94.6976C365.747 95.1063 365.922 95.6318 366.214 96.1574C366.331 96.3909 366.448 96.6245 366.564 96.8581C366.564 96.9749 366.681 97.0916 366.681 97.2084C366.798 97.442 366.915 97.6756 366.973 97.8507C367.207 98.4346 367.499 98.9602 367.732 99.5441C368.199 100.478 368.608 101.237 368.9 101.997C369.134 102.464 369.367 103.048 369.601 103.515C369.718 103.748 369.776 104.04 369.893 104.274L370.068 104.683C370.36 105.325 370.652 106.084 370.944 106.726C371.703 108.42 372.404 109.821 373.163 111.281C373.279 111.514 373.396 111.748 373.571 111.923C373.805 112.273 374.214 112.332 374.506 112.157C374.564 112.098 374.564 112.098 374.622 112.04C374.681 111.982 374.739 111.923 374.739 111.806C374.798 111.748 374.856 111.69 374.914 111.631C374.973 111.573 375.031 111.514 375.09 111.456C375.206 111.222 375.206 111.106 375.148 110.814C375.09 110.638 375.09 110.522 375.031 110.347C374.973 110.171 374.914 109.996 374.973 109.821C374.973 109.704 374.973 109.587 374.973 109.471C374.973 109.354 374.973 109.237 374.914 109.062C374.914 108.712 374.798 108.361 374.856 107.952C374.856 107.135 374.856 106.434 374.856 105.734C374.856 105.15 374.914 104.507 374.914 103.923L374.914 103.456C374.973 102.697 375.031 101.938 375.09 101.062L375.323 98.493C375.382 98.2011 375.382 97.8507 375.382 97.5004C375.382 97.0332 375.44 96.5077 375.498 96.099C375.557 95.2231 375.674 94.2888 375.674 93.3546C375.732 92.5955 375.79 91.8364 375.907 91.0189C376.024 89.9679 376.141 88.8 376.257 87.6322C376.316 87.5738 376.257 87.5154 376.316 87.457L376.316 87.3402L376.316 87.2235L376.374 87.0483C376.433 86.9899 376.374 86.9315 376.374 86.8147C376.374 86.6979 376.433 86.6395 376.433 86.5228L376.491 86.3476C376.491 86.2308 376.549 86.0556 376.549 85.9388C376.608 85.6469 376.608 85.4133 376.666 85.1214C376.783 84.3039 377.017 83.4864 377.192 82.7273L377.192 82.6105C377.367 81.8514 377.542 81.0923 377.776 80.1581C377.834 79.8661 377.892 79.6909 377.951 79.399C378.068 78.8151 378.301 78.2311 378.418 77.6472L378.476 77.4721C378.651 76.713 378.827 75.9539 378.943 75.1364C379.119 74.2605 379.235 73.3263 379.294 72.3336C379.352 71.9249 379.294 71.5161 379.352 71.1074C379.352 70.9906 379.352 70.8738 379.352 70.757C379.352 70.5235 379.352 70.1731 379.294 69.8811C379.235 67.8374 379.177 66.2609 379.002 64.8011C378.943 63.9252 378.885 63.0493 378.71 62.1734C378.535 61.2976 378.418 60.3633 378.184 59.6626L378.184 59.5458C378.126 59.1371 378.009 58.7867 377.951 58.378L377.951 58.2612C377.834 57.7941 377.717 57.327 377.542 56.8014C377.192 55.8672 376.666 54.9913 375.849 54.057C375.557 53.7651 375.206 53.4147 374.856 53.1811C374.564 53.006 374.331 52.7724 373.98 52.6556C373.688 52.4804 373.279 52.3053 372.871 52.2469C372.404 52.1301 372.112 52.0717 371.761 52.0717C371.586 52.0133 371.411 52.0717 371.294 52.0717L371.177 52.0717C370.944 52.0717 370.652 52.1301 370.477 52.1885C369.951 52.2469 369.426 52.4221 368.842 52.6556C368.433 52.8308 368.141 53.006 367.674 53.2395C367.09 53.5899 366.564 54.1154 366.039 54.5242C365.981 54.8161 365.922 54.8745 365.864 54.9329Z" fill="#1FA366"/>
<path d="M333.573 119.456C333.456 119.572 333.398 119.631 333.281 119.748C332.639 120.39 332.172 121.207 331.821 122.025C331.588 122.492 331.471 122.959 331.354 123.426C331.237 123.893 331.179 124.419 331.121 124.828C331.062 125.353 331.121 125.995 331.296 126.638C331.413 127.105 331.588 127.63 331.88 128.156C331.997 128.39 332.172 128.565 332.289 128.798L332.347 128.857C332.522 129.149 332.756 129.382 332.989 129.616L333.106 129.733C333.223 129.849 333.34 129.966 333.398 130.025C333.573 130.2 333.865 130.375 334.099 130.492C334.449 130.725 334.799 130.959 335.15 131.076C335.442 131.251 335.734 131.309 335.967 131.426C336.201 131.543 336.434 131.543 336.726 131.601C337.135 131.659 337.544 131.718 338.069 131.776C338.536 131.776 338.945 131.835 339.354 131.776C339.704 131.776 339.996 131.718 340.288 131.659L340.58 131.601C340.989 131.543 341.514 131.484 341.982 131.368C342.799 131.251 343.675 130.959 344.609 130.492C345.31 130.141 346.069 129.849 346.828 129.441C347.587 129.032 348.346 128.623 349.047 128.156C349.397 127.922 349.748 127.689 350.098 127.455C350.448 127.222 350.682 126.988 351.032 126.755L351.091 126.696C351.558 126.346 351.908 125.995 352.258 125.762C352.492 125.528 352.726 125.412 352.959 125.178L353.193 124.944C353.952 124.302 354.594 123.777 355.12 123.251C355.47 123.018 355.762 122.726 356.054 122.55C356.404 122.317 356.696 122.025 357.047 121.791C357.63 121.324 358.214 120.857 358.798 120.39L359.032 120.156C359.09 120.098 359.09 120.098 359.149 120.04C359.207 119.981 359.265 119.923 359.324 119.864C359.382 119.806 359.441 119.748 359.441 119.748C359.557 119.631 359.616 119.572 359.791 119.514L359.908 119.397C360.141 119.164 360.433 118.988 360.667 118.755L360.842 118.58C361.426 118.113 362.01 117.645 362.594 117.178L362.711 117.062C362.944 116.828 363.178 116.711 363.411 116.478C363.528 116.361 363.645 116.244 363.762 116.127C363.878 116.011 363.995 115.894 364.112 115.777C364.462 115.543 364.871 115.251 365.163 114.959L365.28 114.843C365.689 114.551 366.097 114.259 366.448 113.908L366.623 113.733C367.032 113.441 367.382 113.091 367.791 112.916C368.083 112.741 368.316 112.624 368.666 112.507C368.842 112.449 369.017 112.39 369.192 112.215L369.426 112.098C369.659 111.981 369.893 111.865 370.185 111.69C370.243 111.631 370.418 111.573 370.593 111.514C370.652 111.456 370.652 111.456 370.769 111.456C370.944 111.398 371.119 111.339 371.294 111.164C371.352 111.106 371.411 111.047 371.411 110.93C371.469 110.755 371.528 110.697 371.528 110.58C371.586 110.522 371.586 110.405 371.644 110.347C371.703 110.171 371.644 109.996 371.528 109.763C371.411 109.646 371.294 109.529 371.119 109.471C370.36 109.295 369.426 109.179 368.491 109.062C367.674 108.945 366.74 108.945 365.98 108.887C365.689 108.828 365.397 108.887 365.105 108.828C364.988 108.828 364.871 108.828 364.754 108.828C364.521 108.828 364.17 108.828 363.937 108.828C363.82 108.828 363.586 108.828 363.47 108.828C362.652 108.828 361.835 108.828 360.959 108.887C360.083 108.945 359.207 109.004 358.448 109.062C358.039 109.12 357.572 109.12 357.163 109.179C356.988 109.237 356.871 109.237 356.638 109.237C356.404 109.237 356.112 109.295 355.937 109.354C355.12 109.471 354.244 109.646 353.193 109.763C353.018 109.821 352.784 109.821 352.609 109.879C352.025 109.996 351.441 110.113 350.857 110.23C349.864 110.405 349.047 110.638 348.346 110.872C347.529 111.106 346.711 111.456 345.835 111.865C345.193 112.157 344.609 112.39 343.967 112.682L343.5 112.916C342.857 113.208 342.098 113.616 341.281 114.084C341.106 114.142 340.93 114.317 340.755 114.376C340.58 114.434 340.405 114.609 340.23 114.668C339.938 114.843 339.704 114.959 339.412 115.135L339.12 115.31C338.361 115.719 337.602 116.127 336.901 116.594C336.493 116.886 336.142 117.12 335.792 117.354C335.442 117.587 335.15 117.879 334.858 118.054L334.799 118.113C334.741 118.405 334.157 118.872 333.573 119.456Z" fill="#1FA366"/>
<path d="M338.011 91.778C337.777 92.1284 337.894 92.5955 338.303 92.7707C338.887 93.0042 339.471 93.2378 340.113 93.413C340.755 93.5882 341.339 93.8217 341.923 93.9385C342.449 94.1137 343.091 94.2889 343.616 94.464C344.2 94.6976 344.843 94.8728 345.427 95.1063C346.01 95.3399 346.594 95.5735 347.178 95.807C347.762 96.0406 348.288 96.2158 348.872 96.4493C349.981 96.8581 351.091 97.2668 352.2 97.6756C352.959 97.9675 353.66 98.3179 354.477 98.6682C355.295 99.0186 356.054 99.3105 356.813 99.7193C358.331 100.42 359.791 101.296 361.251 102.172C361.543 102.347 361.893 102.58 362.185 102.756C362.535 102.989 362.886 103.223 363.236 103.456C363.878 103.865 364.521 104.274 365.105 104.741C365.046 104.683 364.988 104.624 364.929 104.566C365.396 104.916 365.864 105.266 366.331 105.617C366.681 105.85 366.915 106.084 367.265 106.318C367.615 106.551 367.907 106.843 368.258 107.077C368.55 107.369 368.842 107.544 369.134 107.836C369.425 108.128 369.659 108.361 369.951 108.653C370.243 108.945 370.535 109.237 370.827 109.529C371.119 109.821 371.411 110.113 371.703 110.405C372.287 110.989 372.812 111.631 373.396 112.215C373.98 112.799 374.564 113.383 375.089 114.025C375.615 114.668 376.141 115.193 376.724 115.777C377.308 116.361 377.834 117.003 378.359 117.645C378.827 118.229 379.41 118.813 379.878 119.397C380.403 120.04 381.045 120.682 381.571 121.324C381.863 121.616 382.096 121.966 382.388 122.258C382.622 122.492 382.797 122.784 383.031 123.018C383.031 123.018 383.031 123.018 383.089 123.076C383.323 123.309 383.439 123.543 383.673 123.777C384.023 124.127 384.607 124.127 384.958 123.777C385.133 123.601 385.25 123.368 385.191 123.193C385.191 123.076 385.133 123.018 385.191 122.959C385.133 122.784 385.016 122.667 384.958 122.609C384.899 122.55 384.899 122.55 384.841 122.492C384.666 122.317 384.607 122.142 384.432 121.966C384.199 121.733 384.023 121.441 383.79 121.207C383.498 120.915 383.323 120.623 383.031 120.332C382.739 120.04 382.447 119.748 382.213 119.397C381.921 119.105 381.688 118.755 381.396 118.463C380.87 117.821 380.345 117.295 379.819 116.653C379.294 116.011 378.768 115.368 378.184 114.784C377.6 114.2 377.075 113.558 376.491 112.974C375.907 112.39 375.44 111.806 374.856 111.222C374.272 110.639 373.688 110.055 373.163 109.412C372.871 109.12 372.579 108.828 372.287 108.536C371.995 108.244 371.703 107.952 371.411 107.661C371.002 107.252 370.652 106.901 370.243 106.493C369.834 106.084 369.367 105.734 368.9 105.383C368.725 105.208 368.433 105.033 368.258 104.858C368.024 104.624 367.791 104.507 367.557 104.274C367.031 103.865 366.506 103.573 366.039 103.223C366.097 103.281 366.156 103.34 366.214 103.398C365.455 102.872 364.813 102.347 363.995 101.88C363.294 101.413 362.477 100.945 361.776 100.478C360.316 99.6025 358.915 98.785 357.338 98.1427C356.93 97.9675 356.521 97.7923 356.112 97.6172C355.703 97.442 355.353 97.3252 355.003 97.0916C354.185 96.7413 353.368 96.391 352.55 96.0406C351.733 95.6903 350.915 95.4567 350.098 95.1063C349.222 94.8144 348.463 94.5224 347.645 94.2889C346.945 94.0553 346.302 93.7633 345.602 93.5298C344.901 93.2962 344.142 93.0042 343.441 92.7707C342.741 92.5371 342.098 92.3619 341.339 92.1868C340.989 92.07 340.638 91.9532 340.23 91.8948C339.938 91.8364 339.587 91.7196 339.354 91.6028C339.179 91.5444 339.12 91.4861 338.945 91.4277C338.653 91.2525 338.244 91.3109 338.011 91.5444C338.069 91.6028 338.011 91.6612 338.011 91.778Z" fill="#010A3F"/>
<path d="M356.521 114.142C356.404 114.376 356.404 114.609 356.463 114.784C356.579 115.251 357.047 115.485 357.514 115.368C357.806 115.31 358.098 115.135 358.448 115.018C358.681 114.901 358.915 114.784 359.149 114.668L359.207 114.609C359.265 114.551 359.382 114.551 359.382 114.551C359.557 114.492 359.733 114.434 359.849 114.317C360.024 114.259 360.258 114.142 360.433 114.084C360.842 113.908 361.192 113.792 361.601 113.616C361.951 113.5 362.302 113.383 362.711 113.208C364.229 112.741 365.805 112.215 367.382 111.923C368.316 111.806 369.25 111.573 370.185 111.456C370.593 111.398 371.119 111.339 371.528 111.281C371.936 111.222 372.345 111.281 372.695 111.281C372.929 111.281 373.163 111.398 373.338 111.456C373.688 111.573 374.097 111.281 374.214 110.93C374.33 110.58 374.038 110.171 373.688 110.055C373.513 109.996 373.338 109.938 373.221 109.938C373.046 109.879 372.812 109.879 372.579 109.879C372.228 109.879 371.936 109.821 371.586 109.821C370.769 109.821 370.009 109.879 369.192 109.996C368.374 110.113 367.44 110.23 366.623 110.347C365.805 110.463 365.046 110.638 364.287 110.93C363.645 111.106 363.061 111.339 362.419 111.514C361.776 111.69 361.076 111.923 360.492 112.157C359.908 112.39 359.382 112.565 358.798 112.799C358.74 112.857 358.681 112.799 358.623 112.857C358.039 113.091 357.572 113.325 356.988 113.558L356.93 113.616C356.755 113.675 356.696 113.733 356.579 113.85C356.521 114.025 356.579 114.084 356.521 114.142ZM358.915 114.784C358.973 114.726 358.973 114.726 359.09 114.726C359.032 114.784 358.973 114.726 358.915 114.784Z" fill="#010A3F"/>
<path d="M370.71 98.3179C370.593 98.4346 370.418 98.7266 370.477 98.9018C370.535 99.4273 370.652 99.8944 370.769 100.478C370.885 100.945 371.002 101.413 371.002 101.88C371.119 102.58 371.119 103.281 371.177 104.04C371.236 104.799 371.352 105.5 371.528 106.259C371.703 107.018 371.936 107.719 372.17 108.42C372.287 108.77 372.345 109.062 372.403 109.354C372.462 109.646 372.579 109.879 372.579 110.113C372.579 110.23 372.637 110.405 372.637 110.522C372.637 110.755 372.695 110.93 372.871 111.106C372.987 111.222 373.221 111.339 373.455 111.339C373.863 111.281 374.272 110.989 374.272 110.522C374.214 109.529 373.98 108.595 373.688 107.602C373.571 107.135 373.396 106.609 373.279 106.142C373.163 105.675 373.104 105.266 373.046 104.741C372.987 104.215 372.987 103.748 372.987 103.281C372.929 102.756 372.871 102.23 372.812 101.705C372.754 101.179 372.637 100.595 372.579 100.07C372.462 99.6025 372.403 99.077 372.287 98.6098C372.17 98.2595 371.82 98.0259 371.469 98.0259C371.177 98.0843 370.885 98.1427 370.71 98.3179Z" fill="#010A3F"/>
<path d="M334.157 104.975C333.982 105.15 333.923 105.325 333.923 105.558C333.923 106.026 334.332 106.434 334.799 106.434C335.15 106.434 335.617 106.434 336.026 106.376C336.434 106.318 336.843 106.259 337.252 106.201C338.011 106.026 338.77 105.85 339.529 105.675C341.106 105.266 342.682 104.858 344.259 104.449C344.843 104.332 345.368 104.157 345.894 103.982C346.186 103.923 346.419 103.807 346.77 103.69C347.062 103.632 347.354 103.456 347.587 103.34C348.755 102.872 349.806 102.289 350.857 101.821C351.558 101.588 352.258 101.237 352.959 101.004C353.309 100.887 353.718 100.712 354.127 100.654C354.477 100.537 354.828 100.537 355.178 100.42C355.47 100.362 355.82 100.362 356.112 100.303C356.404 100.245 356.696 100.303 356.988 100.362C357.222 100.362 357.455 100.478 357.689 100.478C357.922 100.478 358.098 100.537 358.273 100.478C358.623 100.478 358.915 100.186 358.915 99.8361C358.915 99.4857 358.623 99.1938 358.273 99.1938C358.156 99.1938 357.922 99.1938 357.806 99.1938C357.689 99.1938 357.514 99.1354 357.397 99.1354C357.105 99.077 356.871 99.077 356.638 99.077C356.229 99.0186 355.879 99.0186 355.528 99.0186C354.652 99.077 353.835 99.1938 353.018 99.4273C351.441 99.8361 349.923 100.537 348.405 101.237C348.171 101.354 347.937 101.471 347.762 101.529C347.12 101.821 346.361 102.113 345.66 102.347C344.901 102.522 344.2 102.756 343.441 102.931C342.682 103.106 341.806 103.281 340.989 103.515C340.23 103.69 339.412 103.923 338.653 104.099C337.836 104.332 336.96 104.507 336.142 104.624C335.617 104.683 335.208 104.741 334.683 104.799C334.507 104.741 334.332 104.799 334.157 104.975Z" fill="#010A3F"/>
<path d="M341.923 78.2895C341.865 78.4647 341.806 78.7567 341.865 78.9318C342.157 79.6909 342.565 80.45 342.974 81.2091C343.324 81.9098 343.733 82.6689 344.084 83.3696C344.901 84.771 345.777 86.2308 346.594 87.6322C346.828 87.9825 347.062 88.3329 347.295 88.6832C347.529 89.0336 347.704 89.3255 347.937 89.6759C348.171 90.0262 348.405 90.3766 348.638 90.7269C348.872 91.0773 349.105 91.4276 349.397 91.7196C349.631 92.07 349.864 92.3035 350.098 92.6539C350.331 93.0042 350.623 93.2962 350.799 93.5881C351.032 93.9385 351.324 94.3472 351.616 94.6392C351.85 94.9895 352.142 95.2815 352.375 95.515C352.784 95.9238 353.193 96.3325 353.601 96.7413C354.01 97.15 354.419 97.5588 354.828 97.9675C355.061 98.2011 355.353 98.3762 355.645 98.5514C355.82 98.7266 356.112 98.9018 356.346 99.0186C356.638 99.1937 356.871 99.3105 357.222 99.4273C357.514 99.4857 357.747 99.6025 358.039 99.6609C358.39 99.7776 358.74 99.5441 358.857 99.1937C358.973 98.8434 358.681 98.4346 358.39 98.3762C358.098 98.3179 357.864 98.2011 357.63 98.2011C357.222 98.0259 356.871 97.7923 356.521 97.5588C356.171 97.3252 355.879 97.0332 355.587 96.7413C355.295 96.4493 355.003 96.1574 354.769 95.807C354.185 95.2231 353.601 94.5224 353.076 93.8801C352.609 93.2962 352.2 92.6539 351.733 92.0699C351.266 91.3692 350.74 90.7269 350.273 90.0262C349.864 89.3839 349.397 88.6832 349.047 87.9825C348.813 87.6322 348.638 87.3402 348.405 86.9899C348.171 86.6395 347.996 86.2308 347.762 85.8804C347.412 85.2965 347.003 84.6542 346.711 84.0119C346.302 83.3696 346.011 82.7273 345.602 82.085C345.251 81.3843 344.901 80.8004 344.551 80.0997C344.376 79.8077 344.2 79.399 344.025 79.107C343.85 78.815 343.675 78.5231 343.616 78.2311C343.383 77.8808 342.974 77.7056 342.624 77.8224C342.449 77.8808 342.39 77.9392 342.273 78.056C341.981 78.2311 341.923 78.2895 341.923 78.2895Z" fill="#010A3F"/>
</g>
<g opacity="0.2">
<path d="M91.542 322.071C91.6004 322.129 91.6588 322.187 91.7756 322.304C92.0092 322.538 92.1843 322.83 92.4763 323.122L92.5931 323.239L92.7099 323.355C92.9434 323.706 93.2354 323.998 93.4689 324.348C93.7025 324.698 93.8777 325.107 94.0529 325.516C94.2864 325.983 94.4032 326.45 94.4616 326.859L94.4616 326.976V327.092C94.7536 327.618 94.7536 328.202 94.6952 328.727C94.6368 329.019 94.6368 329.37 94.5784 329.662L94.5784 329.778L94.5784 330.012C94.52 330.421 94.4616 330.946 94.4032 331.472C94.3448 331.764 94.228 332.114 94.0529 332.523C93.7609 333.282 93.3522 333.924 92.885 334.625C92.7099 334.917 92.5347 335.209 92.3595 335.501C92.1259 335.851 91.8924 336.201 91.6004 336.61C91.3085 337.019 91.0749 337.369 90.7829 337.661C90.5494 337.895 90.3158 338.128 89.9655 338.479C89.3231 339.004 88.6808 339.53 87.805 340.055C87.1627 340.464 86.4036 340.756 85.6445 341.165C85.3525 341.34 85.0606 341.398 84.7102 341.515L84.535 341.573L84.3599 341.632C83.9511 341.807 83.6008 341.924 83.192 342.099C82.4913 342.333 81.6155 342.625 80.6812 342.858C79.8637 343.092 79.0462 343.208 78.1703 343.384C77.2361 343.5 76.3018 343.617 75.4259 343.676C74.5501 343.734 73.5574 343.792 72.7399 343.792C71.2801 343.851 69.762 343.734 68.3022 343.676L67.6015 343.676C65.9665 343.559 64.2731 343.384 62.4046 343.15C61.7039 343.033 60.9448 342.975 60.2441 342.858L59.8354 342.8C59.4266 342.741 59.0763 342.741 58.7259 342.625L58.6092 342.625L58.4924 342.625C58.142 342.625 57.7917 342.508 57.3829 342.449C57.0326 342.449 56.7406 342.391 56.3319 342.333C55.8064 342.274 55.2808 342.216 54.8137 342.216C53.8794 342.099 53.062 341.982 52.1861 341.807C51.7189 341.69 51.2518 341.69 50.9015 341.69H50.5511C50.2592 341.632 50.0256 341.632 49.7336 341.573C48.7994 341.457 47.9235 341.398 47.1644 341.34H46.9308L46.8141 341.34C46.5221 341.282 46.2301 341.34 45.9382 341.282C45.471 341.282 45.0623 341.223 44.5952 341.223C44.2448 341.223 43.8945 341.223 43.5441 341.223L43.3106 341.223C42.8434 341.223 42.3763 341.223 41.9092 341.223C41.3252 341.223 40.7413 341.223 40.2158 341.165H39.2815C39.1648 341.165 39.048 341.165 38.8728 341.106L38.756 341.106C38.5224 341.106 38.2889 341.106 38.0553 341.106C37.9385 341.106 37.8217 341.106 37.705 341.106C37.4714 341.106 37.121 341.106 36.8875 341.106C36.5371 341.106 36.1868 340.99 35.8948 340.698C35.7196 340.522 35.6029 340.289 35.6029 339.939C35.6029 339.588 35.8364 339.355 36.0116 339.179C36.07 339.121 36.1868 339.004 36.2452 338.946C36.3036 338.887 36.3036 338.887 36.362 338.829L36.4787 338.712C36.4787 338.712 36.5371 338.654 36.4787 338.595C36.5371 338.42 36.6539 338.304 36.8291 338.128C38.3473 337.077 39.8071 336.201 41.0917 335.501C42.6099 334.683 44.0696 333.924 45.6462 333.048C46.055 332.873 46.4637 332.581 46.8724 332.406C46.9308 332.348 47.106 332.289 47.1644 332.231L47.2228 332.172C47.4564 332.056 47.6899 331.939 47.9235 331.822C48.7994 331.297 49.5585 330.888 50.3759 330.537L50.5511 330.479C51.2518 330.129 51.9525 329.778 52.5948 329.37C53.3539 328.961 54.113 328.552 54.8721 328.143C56.5655 327.268 58.3756 326.392 59.5434 325.808L59.7186 325.749C60.4193 325.399 61.12 325.049 61.9375 324.698C62.5798 324.406 63.3389 324.114 64.3315 323.706C65.0906 323.414 65.9665 323.005 66.8424 322.713C67.5431 322.479 68.3022 322.187 68.9445 322.012L69.4116 321.895C70.1707 321.604 71.0466 321.312 71.9808 321.078C72.6815 320.844 73.499 320.611 74.4333 320.377C75.4259 320.085 76.2434 319.969 77.1193 319.793C77.8784 319.618 78.6375 319.56 79.5717 319.443C79.6885 319.443 79.8053 319.443 79.8637 319.385C80.2141 319.385 80.6228 319.326 81.0315 319.268C81.4403 319.209 81.9074 319.209 82.3745 319.209C83.192 319.209 84.0679 319.268 84.8854 319.385C85.5277 319.443 86.2284 319.56 87.1043 319.735C87.3962 319.793 87.7466 319.91 88.0385 319.969C88.3889 320.085 88.7976 320.261 89.148 320.377C89.8487 320.728 90.491 321.253 91.0165 321.662C91.2501 321.779 91.4252 321.954 91.542 322.071Z" fill="#1FA366"/>
<path d="M54.9304 295.502C55.0472 295.619 55.1056 295.678 55.164 295.736C55.5143 296.203 55.8063 296.612 56.0398 297.079C56.2734 297.429 56.3902 297.78 56.507 298.13L56.5653 298.305C56.7405 298.714 56.7989 299.123 56.9741 299.531C57.0909 299.882 57.266 300.407 57.266 300.875C57.3244 301.634 57.3244 302.451 57.266 303.327C57.2077 304.203 57.0325 305.079 56.7989 305.896C56.6237 306.538 56.3902 307.473 56.0398 308.29C55.6895 309.108 55.3391 309.925 54.9304 310.801C54.6384 311.443 54.2881 312.144 53.9377 312.728L53.8209 312.962C53.4122 313.837 52.9451 314.538 52.5947 315.122L52.2444 315.706C51.9524 316.231 51.6021 316.815 51.2517 317.399C50.7846 318.1 50.3758 318.859 49.9087 319.56C49.6167 319.969 49.3248 320.377 49.0328 320.786C48.8577 321.078 48.6241 321.312 48.3905 321.662C48.2153 321.954 47.9818 322.187 47.8066 322.479C47.5147 322.888 47.2227 323.297 46.9307 323.706C46.6388 324.114 46.3468 324.523 46.1133 324.873C45.9965 324.99 45.9381 325.165 45.8797 325.224C45.7629 325.457 45.6461 325.574 45.4709 325.749C45.179 326.158 44.887 326.567 44.5367 326.917C44.2447 327.209 44.0112 327.559 43.7776 327.793L43.6608 327.91C43.4272 328.143 43.1353 328.435 42.9017 328.669C42.5514 329.019 42.201 329.253 41.8507 329.603C40.6244 330.713 39.3398 331.88 38.0552 333.048C37.7049 333.399 37.3545 333.749 36.9458 334.041C36.7122 334.275 36.4202 334.566 36.1283 334.742C35.6028 335.267 35.0188 335.734 34.2598 336.377C33.7926 336.727 33.3255 337.194 32.8584 337.544C32.6248 337.778 32.2744 338.012 32.0409 338.245C31.8657 338.42 31.6905 338.595 31.5154 338.654C31.0482 339.004 30.5811 339.471 30.114 339.822C30.0556 340.114 29.822 340.347 29.4716 340.464C29.1797 340.522 28.9461 340.406 28.7709 340.347C28.7126 340.289 28.6542 340.23 28.5374 340.23L28.479 340.172C28.4206 340.114 28.3622 340.055 28.3622 340.055C28.3038 339.997 28.2454 339.938 28.187 339.88C28.0702 339.763 28.0702 339.647 28.0119 339.471C27.8951 339.238 27.8951 339.004 27.8951 338.771L27.8367 338.712C27.7783 338.187 27.8367 337.661 27.8951 337.136L27.8951 336.902L27.8951 336.785C27.8951 336.669 27.9535 336.61 27.8951 336.552L27.8951 336.318C27.8951 336.201 27.8951 336.085 27.9535 335.909C27.9535 335.559 28.0702 335.209 28.1286 334.8C28.187 334.625 28.2454 334.45 28.2454 334.216C28.3038 334.041 28.3038 333.807 28.3622 333.632C28.479 333.282 28.479 332.931 28.5958 332.581C28.6542 332.172 28.7125 331.764 28.8293 331.413C28.9461 330.829 29.1213 330.304 29.2381 329.72C29.2965 329.545 29.3549 329.253 29.4132 329.078C29.4716 328.902 29.53 328.611 29.53 328.377C29.6468 327.793 29.7636 327.209 29.9972 326.625L30.0556 326.333C30.4643 324.873 30.873 323.414 31.3402 321.895C31.5153 321.37 31.7489 320.786 31.8657 320.202L32.1577 319.443C32.216 319.151 32.3912 318.859 32.4496 318.567C32.6248 318.042 32.8 317.516 32.9751 316.991C33.0919 316.523 33.2671 316.115 33.4423 315.589C33.851 314.363 34.2597 313.137 34.7269 311.969C35.3692 310.392 36.0699 308.757 36.829 307.064C37.1793 306.363 37.5297 305.546 37.9384 304.787C38.4056 303.969 38.8727 303.269 39.3398 302.451C39.8653 301.692 40.3325 300.991 40.7412 300.349C41.15 299.823 41.5003 299.24 41.9091 298.714L42.201 298.305C42.493 297.897 42.7849 297.488 43.1353 297.137L43.1937 297.079C43.4272 296.729 43.7192 296.437 43.9528 296.203C44.1279 296.028 44.3615 295.794 44.5367 295.619C44.9454 295.211 45.4126 294.86 46.0549 294.451C46.4636 294.159 46.9891 293.868 47.5146 293.692C47.865 293.576 48.3321 293.459 48.7993 293.342C49.5 293.225 50.2591 293.284 50.9598 293.4C51.3685 293.459 51.7188 293.576 52.1276 293.751L52.3028 293.809C52.3612 293.868 52.4779 293.868 52.5363 293.926L52.5947 293.984L52.6531 294.043C52.7115 294.101 52.7699 294.043 52.8283 294.101C53.0619 294.218 53.237 294.276 53.4122 294.451C53.5874 294.51 53.7042 294.627 53.8793 294.802C54.4633 295.035 54.6968 295.269 54.9304 295.502Z" fill="#1FA366"/>
<path d="M65.7328 355.12C66.0832 355.471 66.4335 355.821 66.8423 356.23C67.1342 356.522 67.4262 356.814 67.7181 357.222C68.0101 357.514 68.2437 357.865 68.4772 358.215L68.5356 358.273C69.0611 358.916 69.5867 359.675 69.9954 360.434C70.4626 361.251 70.8713 362.011 71.1049 362.828C71.4552 363.762 71.572 364.58 71.6304 365.339C71.6304 365.806 71.6304 366.273 71.5136 366.74C71.3968 367.207 71.2216 367.616 70.8713 368.083C70.3458 368.842 69.5867 369.368 68.886 369.952C68.594 370.127 68.3021 370.302 68.0101 370.477C67.6598 370.594 67.3678 370.769 67.0758 370.828C66.7839 370.886 66.4919 370.944 66.2583 370.944C65.7328 371.003 65.2657 370.886 64.857 370.828C64.4482 370.769 63.9811 370.536 63.5723 370.361C63.222 370.244 62.93 370.069 62.5213 369.777C61.9958 369.485 61.5286 369.134 61.0615 368.784C60.9447 368.667 60.7695 368.609 60.6528 368.492C60.0104 368.083 59.3681 367.558 58.8426 367.149L58.5507 366.974C58.1419 366.682 57.6748 366.332 57.266 366.04C57.0909 365.864 56.7989 365.689 56.5653 365.572C56.215 365.339 55.8063 365.047 55.5143 364.755C55.0472 364.405 54.58 364.054 54.1129 363.704L53.7042 363.412C53.1786 363.003 52.4779 362.536 51.7772 362.069C51.3685 361.777 50.9014 361.543 50.4926 361.251C50.2007 361.076 49.9671 360.959 49.6751 360.784C48.157 359.85 46.8139 359.091 45.5877 358.332C45.2958 358.157 44.887 357.982 44.5951 357.806L44.5367 357.748C44.3615 357.69 44.3031 357.631 44.1279 357.573C43.8944 357.456 43.6608 357.339 43.3688 357.164C43.1937 357.106 43.1353 357.047 42.9601 356.989C42.7265 356.872 42.5514 356.814 42.3178 356.697C42.0842 356.58 41.8507 356.463 41.6171 356.347C41.4419 356.288 41.3251 356.171 41.15 356.113C40.9164 355.996 40.7412 355.938 40.5077 355.821C40.3325 355.763 40.2157 355.646 40.0405 355.587C39.6318 355.412 39.3398 355.237 38.9311 355.062L38.6975 354.945C38.4639 354.828 38.172 354.653 37.88 354.595C37.6465 354.478 37.3545 354.42 37.0625 354.244L36.6538 354.069C36.4202 353.952 36.0699 353.836 35.8363 353.719C35.4276 353.544 34.9021 353.369 34.4933 353.193C33.3255 352.726 32.2744 352.142 31.2234 351.675L30.5811 351.383C30.114 351.15 29.6468 350.916 29.2381 350.624C29.0045 350.507 28.8877 350.391 28.6542 350.274C28.0702 349.923 27.4863 349.573 26.7856 349.106C26.6688 348.989 26.4937 348.931 26.3769 348.814C25.793 348.464 25.2674 348.055 24.7419 347.646C24.6251 347.529 24.3916 347.413 24.2748 347.296L24.158 347.179C23.9828 347.004 23.7493 346.887 23.6325 346.77C23.5741 346.712 23.5157 346.654 23.3989 346.537C23.3405 346.478 23.2821 346.42 23.2237 346.362L23.107 346.245C23.0486 346.186 22.9902 346.128 22.9318 346.07C22.815 345.953 22.6982 345.836 22.6982 345.719C22.6398 345.661 22.6982 345.602 22.6398 345.544C22.523 345.311 22.523 345.077 22.6398 344.843C22.6982 344.668 22.9318 344.551 23.107 344.493C23.2821 344.435 23.4573 344.493 23.6325 344.551C23.7493 344.551 23.9244 344.61 23.9828 344.668C24.0412 344.727 24.0996 344.785 24.2164 344.785C24.45 344.785 24.6835 344.785 24.9171 344.785C25.0339 344.785 25.1507 344.785 25.2674 344.785H25.6178C25.9681 344.785 26.2017 344.785 26.5521 344.785C26.9024 344.785 27.2528 344.785 27.6031 344.785C28.0702 344.785 28.5374 344.785 28.9461 344.727C29.822 344.668 30.6979 344.727 31.3986 344.727C31.8657 344.727 32.2744 344.785 32.6832 344.727C33.0919 344.668 33.5007 344.727 33.9094 344.668C35.8363 344.61 37.4713 344.61 38.9311 344.668H39.1646C39.9237 344.727 40.6244 344.727 41.3835 344.785C41.6171 344.785 41.8507 344.785 42.0258 344.843C42.6681 344.902 43.3105 344.96 43.9528 345.019C44.1863 345.019 44.4783 345.077 44.7702 345.135C44.9454 345.194 45.179 345.194 45.3542 345.252C45.7629 345.311 46.1716 345.369 46.5804 345.427C47.2811 345.544 48.0402 345.719 48.6825 345.894L48.916 345.894C49.7335 346.128 50.6094 346.303 51.4269 346.537C51.7772 346.654 52.186 346.712 52.5363 346.829L52.7115 346.887C53.0618 347.004 53.4122 347.121 53.7625 347.237C54.6968 347.588 55.5727 347.997 56.3318 348.289C57.0909 348.697 57.85 349.106 58.4923 349.398C59.193 349.748 59.7769 350.215 60.4192 350.624L60.536 350.741C61.2367 351.208 61.879 351.734 62.6965 352.318L62.7549 352.376C63.1052 352.609 63.3388 352.843 63.6307 353.135C63.9227 353.427 64.3314 353.719 64.6234 354.011C65.2657 354.653 65.4993 354.887 65.7328 355.12ZM58.9594 364.93L58.6674 364.755L58.9594 364.93Z" fill="#1FA366"/>
<path d="M15.3992 300.933C15.9831 301.517 16.5087 302.159 16.9174 302.801C17.5013 303.619 17.9685 304.32 18.2604 304.962C18.6692 305.838 19.0195 306.772 19.2531 307.59C19.545 308.349 19.6618 309.166 19.837 309.925L19.8954 310.1C19.9538 310.509 20.0122 310.918 20.1289 311.385C20.1873 311.794 20.1873 312.261 20.2457 312.67C20.3041 313.662 20.3041 314.713 20.3041 315.531C20.3041 316.348 20.3041 317.166 20.3041 317.983L20.3041 318.217C20.3041 319.034 20.2457 319.793 20.1873 320.552L20.1873 320.669C20.1289 321.545 20.0122 322.363 19.8954 323.18C19.7202 324.873 19.3699 326.625 19.0195 328.494C18.9027 329.194 18.7275 329.837 18.5524 330.479L18.4356 330.829C18.2604 331.472 18.1436 332.172 17.9684 332.815L17.8517 333.282C17.6765 334.041 17.5013 334.683 17.3261 335.442L17.2678 335.734C17.0926 336.493 16.859 337.428 16.5087 338.362C16.2751 339.063 16.0415 339.88 15.6912 340.698C15.516 341.106 15.3408 341.632 15.0489 342.157C14.9321 342.391 14.8153 342.625 14.6985 342.858C14.6985 342.975 14.5817 343.092 14.5817 343.208C14.4649 343.442 14.3482 343.676 14.2898 343.851C14.0562 344.435 13.7643 344.96 13.5307 345.544C13.0636 346.478 12.6548 347.237 12.3629 347.997C12.1293 348.464 11.8957 349.048 11.6622 349.515C11.5454 349.748 11.487 350.04 11.3702 350.274L11.195 350.683C10.9031 351.325 10.6111 352.084 10.3191 352.726C9.56006 354.42 8.85936 355.821 8.10027 357.281C7.98348 357.514 7.8667 357.748 7.69152 357.923C7.45796 358.273 7.04921 358.332 6.75726 358.157C6.69887 358.098 6.69886 358.098 6.64047 358.04C6.58208 357.982 6.52369 357.923 6.52369 357.806C6.4653 357.748 6.40691 357.69 6.34852 357.631C6.29013 357.573 6.23173 357.514 6.17334 357.456C6.05656 357.222 6.05656 357.106 6.11495 356.814C6.17334 356.639 6.17334 356.522 6.23174 356.347C6.29013 356.171 6.34852 355.996 6.29013 355.821C6.29013 355.704 6.29013 355.587 6.29013 355.471C6.29013 355.354 6.29013 355.237 6.34852 355.062C6.34852 354.712 6.4653 354.361 6.40691 353.952C6.40691 353.135 6.40691 352.434 6.40691 351.734C6.40691 351.15 6.34852 350.507 6.34852 349.923L6.34852 349.456C6.29013 348.697 6.23173 347.938 6.17334 347.062L5.93977 344.493C5.88138 344.201 5.88138 343.851 5.88138 343.5C5.88138 343.033 5.82299 342.508 5.7646 342.099C5.70621 341.223 5.58942 340.289 5.58942 339.355C5.53103 338.595 5.47265 337.836 5.35586 337.019C5.23908 335.968 5.12229 334.8 5.00551 333.632C4.94712 333.574 5.00551 333.515 4.94712 333.457L4.94712 333.34L4.94711 333.223L4.88873 333.048C4.83034 332.99 4.88873 332.932 4.88873 332.815C4.88873 332.698 4.83033 332.64 4.83033 332.523L4.77195 332.348C4.77195 332.231 4.71356 332.056 4.71356 331.939C4.65517 331.647 4.65516 331.413 4.59677 331.121C4.47999 330.304 4.24642 329.486 4.07125 328.727L4.07124 328.611C3.89606 327.851 3.7209 327.092 3.48733 326.158C3.42894 325.866 3.37055 325.691 3.31216 325.399C3.19537 324.815 2.9618 324.231 2.84502 323.647L2.78663 323.472C2.61145 322.713 2.43628 321.954 2.3195 321.136C2.14433 320.261 2.02754 319.326 1.96915 318.334C1.91076 317.925 1.96914 317.516 1.91075 317.107C1.91075 316.991 1.91075 316.874 1.91075 316.757C1.91075 316.523 1.91076 316.173 1.96915 315.881C2.02754 313.837 2.08593 312.261 2.26111 310.801C2.3195 309.925 2.37789 309.049 2.55306 308.173C2.72824 307.298 2.84502 306.363 3.07858 305.663L3.07859 305.546C3.13699 305.137 3.25377 304.787 3.31216 304.378L3.31216 304.261C3.42894 303.794 3.54572 303.327 3.7209 302.801C4.07125 301.867 4.59677 300.991 5.41425 300.057C5.70621 299.765 6.05656 299.415 6.40691 299.181C6.69887 299.006 6.93244 298.772 7.28279 298.656C7.57475 298.48 7.98348 298.305 8.39223 298.247C8.85936 298.13 9.15131 298.072 9.50166 298.072C9.67684 298.013 9.85202 298.072 9.96881 298.072L10.0856 298.072C10.3191 298.072 10.6111 298.13 10.7863 298.189C11.3118 298.247 11.8373 298.422 12.4212 298.656C12.83 298.831 13.1219 299.006 13.5891 299.24C14.173 299.59 14.6985 300.115 15.224 300.524C15.2824 300.816 15.3408 300.875 15.3992 300.933Z" fill="#1FA366"/>
<path d="M47.6898 365.456C47.8066 365.572 47.865 365.631 47.9818 365.748C48.6241 366.39 49.0912 367.207 49.4416 368.025C49.6751 368.492 49.7919 368.959 49.9087 369.426C50.0255 369.893 50.0839 370.419 50.1423 370.828C50.2007 371.353 50.1423 371.995 49.9671 372.638C49.8503 373.105 49.6751 373.63 49.3832 374.156C49.2664 374.39 49.0912 374.565 48.9744 374.798L48.916 374.857C48.7409 375.149 48.5073 375.382 48.2737 375.616L48.157 375.733C48.0402 375.849 47.9234 375.966 47.865 376.025C47.6898 376.2 47.3979 376.375 47.1643 376.492C46.8139 376.725 46.4636 376.959 46.1132 377.076C45.8213 377.251 45.5293 377.309 45.2958 377.426C45.0622 377.543 44.8286 377.543 44.5367 377.601C44.1279 377.659 43.7192 377.718 43.1937 377.776C42.7265 377.776 42.3178 377.835 41.909 377.776C41.5587 377.776 41.2667 377.718 40.9748 377.659L40.6828 377.601C40.2741 377.543 39.7486 377.484 39.2814 377.368C38.4639 377.251 37.5881 376.959 36.6538 376.492C35.9531 376.141 35.194 375.849 34.4349 375.441C33.6758 375.032 32.9167 374.623 32.216 374.156C31.8657 373.922 31.5153 373.689 31.165 373.455C30.8146 373.222 30.5811 372.988 30.2307 372.755L30.1723 372.696C29.7052 372.346 29.3549 371.995 29.0045 371.762C28.7709 371.528 28.5374 371.412 28.3038 371.178L28.0702 370.944C27.3111 370.302 26.6688 369.777 26.1433 369.251C25.793 369.018 25.501 368.726 25.209 368.55C24.8587 368.317 24.5667 368.025 24.2164 367.791C23.6325 367.324 23.0486 366.857 22.4646 366.39L22.2311 366.156C22.1727 366.098 22.1727 366.098 22.1143 366.04C22.0559 365.981 21.9975 365.923 21.9391 365.864C21.8807 365.806 21.8223 365.748 21.8223 365.748C21.7056 365.631 21.6472 365.572 21.472 365.514L21.3552 365.397C21.1216 365.164 20.8297 364.988 20.5961 364.755L20.4209 364.58C19.837 364.113 19.2531 363.645 18.6692 363.178L18.5524 363.062C18.3188 362.828 18.0853 362.711 17.8517 362.478C17.7349 362.361 17.6181 362.244 17.5014 362.127C17.3846 362.011 17.2678 361.894 17.151 361.777C16.8007 361.543 16.3919 361.251 16.1 360.959L15.9832 360.843C15.5744 360.551 15.1657 360.259 14.8153 359.908L14.6402 359.733C14.2314 359.441 13.8811 359.091 13.4723 358.916C13.1804 358.741 12.9468 358.624 12.5965 358.507C12.4213 358.449 12.2461 358.39 12.0709 358.215L11.8374 358.098C11.6038 357.981 11.3702 357.865 11.0783 357.69C11.0199 357.631 10.8447 357.573 10.6695 357.514C10.6111 357.456 10.6111 357.456 10.4944 357.456C10.3192 357.398 10.144 357.339 9.96884 357.164C9.91044 357.106 9.85206 357.047 9.85206 356.93C9.79367 356.755 9.73527 356.697 9.73527 356.58C9.67688 356.522 9.67687 356.405 9.61848 356.347C9.56009 356.171 9.61849 355.996 9.73527 355.763C9.85206 355.646 9.96884 355.529 10.144 355.471C10.9031 355.295 11.8374 355.179 12.7716 355.062C13.5891 354.945 14.5234 354.945 15.2825 354.887C15.5744 354.828 15.8664 354.887 16.1584 354.828C16.2751 354.828 16.3919 354.828 16.5087 354.828C16.7423 354.828 17.0926 354.828 17.3262 354.828C17.443 354.828 17.6765 354.828 17.7933 354.828C18.6108 354.828 19.4283 354.828 20.3042 354.887C21.18 354.945 22.0559 355.004 22.815 355.062C23.2237 355.12 23.6909 355.12 24.0996 355.179C24.2748 355.237 24.3916 355.237 24.6251 355.237C24.8587 355.237 25.1507 355.295 25.3258 355.354C26.1433 355.471 27.0192 355.646 28.0702 355.763C28.2454 355.821 28.479 355.821 28.6542 355.879C29.2381 355.996 29.822 356.113 30.4059 356.23C31.3986 356.405 32.216 356.638 32.9167 356.872C33.7342 357.106 34.5517 357.456 35.4276 357.865C36.0699 358.157 36.6538 358.39 37.2961 358.682L37.7632 358.916C38.4056 359.208 39.1646 359.616 39.9821 360.084C40.1573 360.142 40.3325 360.317 40.5076 360.376C40.6828 360.434 40.858 360.609 41.0332 360.668C41.3251 360.843 41.5587 360.959 41.8507 361.135L42.1426 361.31C42.9017 361.719 43.6608 362.127 44.3615 362.594C44.7702 362.886 45.1206 363.12 45.4709 363.354C45.8213 363.587 46.1132 363.879 46.4052 364.054L46.4636 364.113C46.522 364.405 47.1059 364.872 47.6898 365.456Z" fill="#1FA366"/>
<path d="M43.2521 337.778C43.4857 338.128 43.3689 338.595 42.9602 338.771C42.3763 339.004 41.7924 339.238 41.15 339.413C40.5077 339.588 39.9238 339.822 39.3399 339.938C38.8144 340.114 38.1721 340.289 37.6466 340.464C37.0626 340.698 36.4203 340.873 35.8364 341.106C35.2525 341.34 34.6686 341.573 34.0847 341.807C33.5007 342.041 32.9752 342.216 32.3913 342.449C31.2819 342.858 30.1724 343.267 29.063 343.676C28.3039 343.968 27.6032 344.318 26.7857 344.668C25.9682 345.019 25.2091 345.311 24.45 345.719C22.9319 346.42 21.4721 347.296 20.0123 348.172C19.7203 348.347 19.37 348.58 19.078 348.756C18.7277 348.989 18.3773 349.223 18.027 349.456C17.3847 349.865 16.7424 350.274 16.1584 350.741C16.2168 350.683 16.2752 350.624 16.3336 350.566C15.8665 350.916 15.3993 351.266 14.9322 351.617C14.5819 351.85 14.3483 352.084 13.998 352.318C13.6476 352.551 13.3556 352.843 13.0053 353.077C12.7133 353.369 12.4214 353.544 12.1294 353.836C11.8375 354.128 11.6039 354.361 11.3119 354.653C11.02 354.945 10.728 355.237 10.4361 355.529C10.1441 355.821 9.85214 356.113 9.56019 356.405C8.97627 356.989 8.45075 357.631 7.86683 358.215C7.28292 358.799 6.699 359.383 6.17347 360.025C5.64795 360.668 5.12242 361.193 4.5385 361.777C3.95459 362.361 3.42906 363.003 2.90354 363.645C2.4364 364.229 1.8525 364.813 1.38536 365.397C0.85984 366.04 0.217527 366.682 -0.307998 367.324C-0.599956 367.616 -0.833523 367.966 -1.12548 368.258C-1.35905 368.492 -1.53422 368.784 -1.76778 369.018C-1.76778 369.018 -1.76779 369.018 -1.82618 369.076C-2.05975 369.309 -2.17652 369.543 -2.41009 369.777C-2.76044 370.127 -3.34436 370.127 -3.69471 369.777C-3.86988 369.601 -3.98667 369.368 -3.92828 369.193C-3.92828 369.076 -3.86988 369.018 -3.92828 368.959C-3.86988 368.784 -3.7531 368.667 -3.69471 368.609C-3.63632 368.55 -3.63632 368.55 -3.57793 368.492C-3.40275 368.317 -3.34436 368.142 -3.16919 367.966C-2.93562 367.733 -2.76045 367.441 -2.52688 367.207C-2.23492 366.915 -2.05974 366.623 -1.76778 366.331C-1.47583 366.04 -1.18387 365.748 -0.9503 365.397C-0.658342 365.105 -0.424775 364.755 -0.132817 364.463C0.392708 363.821 0.918226 363.295 1.44375 362.653C1.96927 362.011 2.4948 361.368 3.07872 360.784C3.66263 360.2 4.18816 359.558 4.77207 358.974C5.35599 358.39 5.82312 357.806 6.40703 357.222C6.99095 356.638 7.57487 356.055 8.10039 355.412C8.39235 355.12 8.68431 354.828 8.97626 354.536C9.26822 354.244 9.56018 353.952 9.85214 353.661C10.2609 353.252 10.6112 352.901 11.02 352.493C11.4287 352.084 11.8959 351.734 12.363 351.383C12.5382 351.208 12.8301 351.033 13.0053 350.858C13.2389 350.624 13.4724 350.507 13.706 350.274C14.2315 349.865 14.757 349.573 15.2242 349.223C15.1658 349.281 15.1074 349.34 15.049 349.398C15.8081 348.872 16.4504 348.347 17.2679 347.88C17.9686 347.413 18.7861 346.945 19.4868 346.478C20.9465 345.602 22.348 344.785 23.9245 344.143C24.3333 343.968 24.742 343.792 25.1507 343.617C25.5595 343.442 25.9098 343.325 26.2602 343.092C27.0777 342.741 27.8952 342.391 28.7126 342.041C29.5301 341.69 30.3476 341.457 31.1651 341.106C32.041 340.814 32.8 340.522 33.6175 340.289C34.3182 340.055 34.9605 339.763 35.6612 339.53C36.3619 339.296 37.121 339.004 37.8217 338.771C38.5224 338.537 39.1647 338.362 39.9238 338.187C40.2742 338.07 40.6245 337.953 41.0333 337.895C41.3252 337.836 41.6756 337.72 41.9091 337.603C42.0843 337.544 42.1427 337.486 42.3179 337.428C42.6098 337.252 43.0186 337.311 43.2521 337.544C43.1938 337.603 43.2521 337.661 43.2521 337.778Z" fill="#010A3F"/>
<path d="M24.7419 360.142C24.8587 360.376 24.8587 360.609 24.8003 360.784C24.6836 361.251 24.2164 361.485 23.7493 361.368C23.4573 361.31 23.1654 361.135 22.815 361.018C22.5815 360.901 22.3479 360.784 22.1143 360.668L22.0559 360.609C21.9975 360.551 21.8808 360.551 21.8808 360.551C21.7056 360.492 21.5304 360.434 21.4136 360.317C21.2384 360.259 21.0049 360.142 20.8297 360.084C20.421 359.908 20.0706 359.792 19.6619 359.616C19.3115 359.5 18.9612 359.383 18.5524 359.208C17.0343 358.741 15.4577 358.215 13.8811 357.923C12.9468 357.806 12.0126 357.573 11.0783 357.456C10.6696 357.398 10.144 357.339 9.7353 357.281C9.32655 357.222 8.91781 357.281 8.56746 357.281C8.3339 357.281 8.10033 357.398 7.92516 357.456C7.57481 357.573 7.16607 357.281 7.04928 356.93C6.9325 356.58 7.22445 356.171 7.5748 356.055C7.74998 355.996 7.92516 355.938 8.04194 355.938C8.21711 355.879 8.45068 355.879 8.68425 355.879C9.0346 355.879 9.32656 355.821 9.67691 355.821C10.4944 355.821 11.2535 355.879 12.071 355.996C12.8884 356.113 13.8227 356.23 14.6402 356.347C15.4577 356.463 16.2168 356.639 16.9759 356.93C17.6182 357.106 18.2021 357.339 18.8444 357.514C19.4867 357.69 20.1874 357.923 20.7713 358.157C21.3552 358.39 21.8808 358.565 22.4647 358.799C22.5231 358.857 22.5814 358.799 22.6398 358.857C23.2238 359.091 23.6909 359.325 24.2748 359.558L24.3332 359.616C24.5084 359.675 24.5668 359.733 24.6836 359.85C24.7419 360.025 24.6836 360.084 24.7419 360.142ZM22.3479 360.784C22.2895 360.726 22.2895 360.726 22.1727 360.726C22.2311 360.784 22.2895 360.726 22.3479 360.784Z" fill="#010A3F"/>
<path d="M10.5528 344.318C10.6696 344.435 10.8448 344.727 10.7864 344.902C10.728 345.427 10.6112 345.894 10.4944 346.478C10.3776 346.945 10.2609 347.413 10.2609 347.88C10.1441 348.58 10.1441 349.281 10.0857 350.04C10.0273 350.799 9.91051 351.5 9.73534 352.259C9.56016 353.018 9.3266 353.719 9.09303 354.42C8.97625 354.77 8.91785 355.062 8.85946 355.354C8.80107 355.646 8.68429 355.879 8.68429 356.113C8.68429 356.23 8.62589 356.405 8.62589 356.522C8.62589 356.755 8.5675 356.93 8.39233 357.106C8.27554 357.222 8.04198 357.339 7.80841 357.339C7.39967 357.281 6.99093 356.989 6.99093 356.522C7.04932 355.529 7.28289 354.595 7.57484 353.602C7.69163 353.135 7.8668 352.609 7.98359 352.142C8.10037 351.675 8.15876 351.266 8.21715 350.741C8.27554 350.215 8.27555 349.748 8.27555 349.281C8.33394 348.756 8.39233 348.23 8.45072 347.705C8.50911 347.179 8.62589 346.595 8.68428 346.07C8.80106 345.602 8.85946 345.077 8.97624 344.61C9.09302 344.259 9.44338 344.026 9.79373 344.026C10.0857 344.084 10.3776 344.143 10.5528 344.318Z" fill="#010A3F"/>
<path d="M47.1059 350.975C47.2811 351.15 47.3395 351.325 47.3395 351.558C47.3395 352.026 46.9307 352.434 46.4636 352.434C46.1132 352.434 45.6461 352.434 45.2374 352.376C44.8286 352.318 44.4199 352.259 44.0111 352.201C43.252 352.026 42.493 351.85 41.7339 351.675C40.1573 351.266 38.5807 350.858 37.0041 350.449C36.4202 350.332 35.8947 350.157 35.3692 349.982C35.0772 349.923 34.8437 349.807 34.4933 349.69C34.2014 349.632 33.9094 349.456 33.6758 349.34C32.508 348.872 31.4569 348.288 30.4059 347.821C29.7052 347.588 29.0045 347.237 28.3038 347.004C27.9534 346.887 27.5447 346.712 27.136 346.654C26.7856 346.537 26.4353 346.537 26.0849 346.42C25.793 346.362 25.4426 346.362 25.1507 346.303C24.8587 346.245 24.5667 346.303 24.2748 346.362C24.0412 346.362 23.8076 346.478 23.5741 346.478C23.3405 346.478 23.1653 346.537 22.9902 346.478C22.6398 346.478 22.3479 346.186 22.3479 345.836C22.3479 345.486 22.6398 345.194 22.9902 345.194C23.1069 345.194 23.3405 345.194 23.4573 345.194C23.5741 345.194 23.7493 345.135 23.866 345.135C24.158 345.077 24.3916 345.077 24.6251 345.077C25.0339 345.019 25.3842 345.019 25.7346 345.019C26.6104 345.077 27.4279 345.194 28.2454 345.427C29.822 345.836 31.3402 346.537 32.8584 347.237C33.0919 347.354 33.3255 347.471 33.5006 347.529C34.143 347.821 34.9021 348.113 35.6028 348.347C36.3618 348.522 37.0625 348.756 37.8216 348.931C38.5807 349.106 39.4566 349.281 40.2741 349.515C41.0332 349.69 41.8507 349.923 42.6097 350.099C43.4272 350.332 44.3031 350.507 45.1206 350.624C45.6461 350.683 46.0549 350.741 46.5804 350.799C46.7556 350.741 46.9307 350.799 47.1059 350.975Z" fill="#010A3F"/>
<path d="M39.3398 324.29C39.3982 324.465 39.4566 324.757 39.3982 324.932C39.1063 325.691 38.6975 326.45 38.2888 327.209C37.9384 327.91 37.5297 328.669 37.1794 329.37C36.3619 330.771 35.486 332.231 34.6685 333.632C34.435 333.983 34.2014 334.333 33.9678 334.683C33.7343 335.034 33.5591 335.326 33.3255 335.676C33.0919 336.026 32.8584 336.377 32.6248 336.727C32.3912 337.077 32.1577 337.428 31.8657 337.72C31.6322 338.07 31.3986 338.304 31.165 338.654C30.9315 339.004 30.6395 339.296 30.4643 339.588C30.2308 339.938 29.9388 340.347 29.6468 340.639C29.4133 340.99 29.1213 341.281 28.8878 341.515C28.479 341.924 28.0703 342.333 27.6615 342.741C27.2528 343.15 26.844 343.559 26.4353 343.968C26.2017 344.201 25.9098 344.376 25.6178 344.551C25.4426 344.727 25.1507 344.902 24.9171 345.019C24.6252 345.194 24.3916 345.311 24.0412 345.427C23.7493 345.486 23.5157 345.602 23.2238 345.661C22.8734 345.778 22.5231 345.544 22.4063 345.194C22.2895 344.843 22.5815 344.435 22.8734 344.376C23.1654 344.318 23.3989 344.201 23.6325 344.201C24.0412 344.026 24.3916 343.792 24.7419 343.559C25.0923 343.325 25.3843 343.033 25.6762 342.741C25.9682 342.449 26.2601 342.157 26.4937 341.807C27.0776 341.223 27.6615 340.522 28.187 339.88C28.6542 339.296 29.0629 338.654 29.5301 338.07C29.9972 337.369 30.5227 336.727 30.9898 336.026C31.3986 335.384 31.8657 334.683 32.2161 333.983C32.4496 333.632 32.6248 333.34 32.8584 332.99C33.0919 332.64 33.2671 332.231 33.5007 331.88C33.851 331.297 34.2598 330.654 34.5517 330.012C34.9605 329.37 35.2524 328.727 35.6612 328.085C36.0115 327.384 36.3619 326.8 36.7122 326.1C36.8874 325.808 37.0626 325.399 37.2378 325.107C37.4129 324.815 37.5881 324.523 37.6465 324.231C37.8801 323.881 38.2888 323.706 38.6391 323.822C38.8143 323.881 38.8727 323.939 38.9895 324.056C39.2815 324.231 39.3398 324.29 39.3398 324.29Z" fill="#010A3F"/>
</g>
<circle opacity="0.2" cx="8.5" cy="48.5" r="100.5" fill="#0DA587"/>
<circle opacity="0.2" cx="393.5" cy="349.5" r="87.5" fill="#0DA587"/>
</g>
</svg>
