<svg width="292" height="407" viewBox="0 0 292 407" fill="none" xmlns="http://www.w3.org/2000/svg">
<mask id="mask0_52_15613" style="mask-type:alpha" maskUnits="userSpaceOnUse" x="0" y="0" width="292" height="407">
<rect width="292" height="407" fill="#D9D9D9"/>
</mask>
<g mask="url(#mask0_52_15613)">
<path opacity="0.2" d="M257.462 259H130.538C122.51 259 116 253.551 116 246.832V31.168C116 24.4488 122.51 19 130.538 19H257.462C265.49 19 272 24.4488 272 31.168V246.832C272 253.551 265.49 259 257.462 259Z" fill="#FFF6F3"/>
<path d="M233.18 236.56H154.4C148.74 236.56 144.15 231.97 144.15 226.31C144.15 220.65 148.74 216.06 154.4 216.06H233.18C238.84 216.06 243.43 220.65 243.43 226.31C243.43 231.97 238.84 236.56 233.18 236.56Z" fill="white"/>
<path d="M232.779 136H154.221C148.577 136 144 129.507 144 121.5C144 113.493 148.577 107 154.221 107H232.779C238.423 107 243 113.493 243 121.5C243 129.507 238.423 136 232.779 136Z" fill="white"/>
<path d="M241.24 87.09V75H229.15" stroke="white" stroke-miterlimit="10" stroke-linecap="round" stroke-linejoin="round"/>
<path d="M241.24 157.87V169.96H229.15" stroke="white" stroke-miterlimit="10" stroke-linecap="round" stroke-linejoin="round"/>
<path d="M146.34 87.09V75H158.43" stroke="white" stroke-miterlimit="10" stroke-linecap="round" stroke-linejoin="round"/>
<path d="M146.34 157.87V169.96H158.43" stroke="white" stroke-miterlimit="10" stroke-linecap="round" stroke-linejoin="round"/>
<g clip-path="url(#clip0_52_15613)">
<path opacity="0.2" d="M69.2364 379.931C70.2909 379.931 71.3299 379.939 72.3689 379.955C79.2851 376.924 95.4978 374.799 114.401 374.799C139.585 374.791 160 378.564 160 383.228C160 387.314 144.276 390.728 123.411 391.501C122.046 397.352 98.3201 402.008 69.2364 402.008C39.2843 402.008 15 397.063 15 390.97C15 384.869 39.2843 379.931 69.2364 379.931Z" fill="#FFF6F3"/>
<path d="M32.1044 225.959C33.252 225.123 34.4072 224.67 35.5548 223.319C36.3844 222.35 38.8035 220.882 40.0519 219.679C40.5946 220.936 42.029 224.233 43.1223 226.123C44.4947 228.498 46.0997 230.006 46.0997 230.006C46.0997 230.006 46.1384 232.42 45.8593 235.076C45.5879 237.724 45.146 238.943 45.146 238.943C45.146 238.943 39.827 235.466 36.8651 232.201C34.6321 229.748 32.6239 227.248 31.7633 226.17C31.8796 226.108 31.9881 226.037 32.1044 225.959Z" fill="#E7816D"/>
<path d="M39.8348 219.163L31.3368 225.616L32.7325 227.366C32.7325 227.366 36.586 223.671 37.9894 222.491C39.3928 221.311 40.2845 220.218 40.2845 220.218L39.8348 219.163Z" fill="#101E39"/>
<path d="M48.7824 124.889C49.2631 120.038 51.9149 118.343 52.791 117.046C53.6749 115.749 57.2028 114.218 58.0092 113.812C58.8078 113.406 59.0404 111.789 60.4206 111.25C61.8007 110.711 63.0413 112.023 64.0725 111.797C65.096 111.57 65.5534 109.594 67.1119 109.328C68.6704 109.055 69.8334 110.945 69.8334 110.945C69.8334 110.945 73.7568 108.289 74.6019 109.305C75.447 110.32 74.6019 111.304 74.6019 111.304C74.6019 111.304 75.2687 111.211 75.7184 112.336C76.1681 113.46 75.7184 115.796 75.7184 115.796C75.7184 115.796 76.7962 115.757 76.9745 116.476C77.1141 117.023 76.6488 118.89 76.424 120.413C76.3542 120.89 76.3077 121.327 76.3077 121.686C76.3077 123.171 75.2299 126.748 73.811 127.967C72.082 129.444 70.1513 131.256 70.4925 133.248C70.8724 135.482 71.3997 138.443 69.5621 140.896C67.6779 143.419 64.2664 145.911 61.2192 145.911C59.4204 145.911 58.1798 145.802 56.8307 144.747C55.8847 144.013 54.8845 142.825 53.5974 140.904C50.4727 136.209 48.3017 129.74 48.7824 124.889Z" fill="#DC761C"/>
<path d="M116.937 146.489C116.921 145.888 116.898 144.997 116.867 143.653C116.774 139.599 116.743 133.779 116.743 130.084C116.743 126.389 117.665 124.842 118.565 123.202C119.456 121.561 122.682 114.843 124.248 111.234C125.814 107.633 126.962 106.695 127.699 107.086C128.435 107.469 128.047 108.695 127.319 111.265C126.582 113.835 124.38 120.397 124.38 120.397C124.38 120.397 126.326 120.397 127.125 121.202C127.923 122.007 127.319 122.968 127.83 123.389C128.342 123.811 128.854 122.968 129.877 123.616C130.901 124.256 130.296 125.256 130.8 125.803C131.312 126.35 131.854 125.741 132.622 126.67C133.39 127.6 132.862 129.342 132.002 131.811C131.141 134.279 129.055 135.888 128.505 136.381C127.954 136.873 127.768 136.506 127.644 139.404C127.559 141.333 128.078 144.903 128.435 147.083C127.311 146.067 125.876 145.31 124.078 145.083C120.542 144.638 118.216 145.091 116.937 146.489Z" fill="#ECC696"/>
<path d="M72.3844 151.504C70.2754 150.52 65.0029 148.481 59.808 147.989C58.614 147.88 57.6448 147.841 56.8306 147.872V144.739C58.1875 145.794 59.4281 145.903 61.2192 145.903C64.2663 145.903 67.6779 143.411 69.562 140.888C71.3996 138.435 70.8724 135.467 70.4925 133.24C70.1591 131.248 72.082 129.436 73.811 127.959C75.2299 126.749 76.3077 123.163 76.3077 121.679C76.3077 121.327 76.3542 120.882 76.424 120.405C77.5095 123.608 80.6885 133.56 79.8743 138.287C78.8974 143.966 77.4862 145.575 76.0751 145.575C74.6639 145.575 73.8033 145.45 73.6249 147.552C73.5086 148.88 73.3458 150.887 73.2372 152.192C73.0357 151.918 72.7565 151.676 72.3844 151.504Z" fill="#ECC696"/>
<path d="M24.4284 196.063C24.754 192.306 25.2425 184.861 25.6457 182.08C26.0489 179.299 26.5374 177.174 27.0258 171.94C27.5143 166.706 30.0265 164.253 32.7092 162.949C35.3842 161.644 41.4708 157.715 45.6887 155.84C49.9067 153.957 50.3176 153.145 51.9381 150.77C53.1865 148.942 54.1014 147.989 56.8307 147.872C57.6448 147.841 58.614 147.872 59.808 147.989C65.0029 148.481 70.2754 150.52 72.3844 151.504C72.7565 151.676 73.0357 151.918 73.245 152.2C74.2065 153.504 73.7025 155.692 74.5476 156.387C75.7494 157.363 80.1922 155.317 83.4953 156.488C85.4182 157.168 88.0001 160.254 88.0001 160.254C88.0001 160.254 88.9771 159.832 89.9075 160.527C91.8381 161.988 96.8547 162.73 102.507 162.957C108.159 163.191 112.982 161.48 112.982 161.48C112.982 161.48 112.664 161.16 112.587 160.308C112.509 159.457 113.347 156.246 113.812 154.707C114.269 153.168 115.037 152.785 115.037 152.012C115.037 151.247 115.207 150.84 116.014 148.161C116.215 147.497 116.526 146.934 116.952 146.473C118.231 145.083 120.557 144.63 124.085 145.067C125.884 145.294 127.319 146.052 128.443 147.067C130.249 148.7 131.234 150.997 131.575 152.785C132.118 155.692 130.676 158.277 130.676 158.277C130.676 158.277 130.676 158.277 130.583 160.136C130.49 161.996 129.676 165.386 129.745 168.706C129.815 172.018 129.172 172.096 127.954 174.831C126.737 177.573 126.598 177.783 120.511 181.244C114.424 184.705 103.484 185.642 100.91 185.713C98.3357 185.783 92.2491 185.931 90.8922 186.72C89.5353 187.517 87.6279 187.626 87.6279 187.626C87.6279 187.626 87.5349 188.384 87.2558 190.454C86.9766 192.532 86.9766 196.024 87.3488 200.266C87.721 204.508 92.4894 230.186 92.4894 230.186C92.4894 230.186 92.2956 230.451 91.7218 230.748C91.4039 230.92 90.9697 231.1 90.3805 231.248C88.7445 231.67 84.4722 231.357 80.7272 231.248C76.9823 231.139 69.0193 230.982 61.5293 230.24C60.0484 230.092 58.5442 229.99 57.0943 229.928C51.2171 229.662 46.1229 229.975 46.1229 229.975C46.1229 229.975 45.3863 222.428 45.0142 219.718C44.642 217.007 44.5955 214.827 42.9595 212.226C41.3235 209.625 37.5785 201.438 37.5785 201.438C37.5785 201.438 37.4234 202.289 37.3149 203.406C37.2063 204.524 37.2063 205.906 37.2063 207.711C37.2063 209.515 37.7878 213.359 37.9739 214.195C38.16 215.031 38.3461 215.82 39.1214 216.234C39.9046 216.648 40.6877 217.21 40.8272 218.413C40.866 218.749 40.5559 219.179 40.0674 219.647C38.8191 220.843 36.3999 222.319 35.5703 223.288C34.4228 224.639 33.2675 225.092 32.12 225.928C32.0036 226.014 31.8951 226.077 31.7865 226.139C30.7941 226.694 29.9644 226.311 28.3905 223.928C26.6382 221.28 27.5298 220.304 27.5298 220.304C27.5298 220.304 24.3664 214.257 23.149 209.593C21.9162 204.969 24.1027 199.821 24.4284 196.063Z" fill="white"/>
<path d="M98.1728 382.525C103.841 380.877 106.539 375.838 106.539 375.838C106.539 375.838 110.152 377.455 114.665 376.744C119.177 376.033 121.387 379.267 120.782 382.205C120.178 385.134 116.968 389.282 111.152 390.493C105.337 391.704 104.027 391.704 104.027 391.704C104.027 391.704 104.329 393.829 102.019 394.633C99.708 395.438 91.086 396.251 89.5818 393.22C88.0776 390.188 89.0779 381.595 89.0779 381.595C89.0779 381.595 92.5049 384.173 98.1728 382.525Z" fill="#ECC696"/>
<path d="M42.2229 310.031C44.014 304.766 44.611 298.524 44.611 294.837C44.611 291.149 43.1921 274.377 41.9205 269.706C40.6489 265.042 39.3851 256.988 41.6181 250.598C43.8511 244.208 45.1382 238.935 45.1382 238.935C45.1382 238.935 45.5802 237.716 45.8516 235.068C46.1229 232.42 46.0919 229.998 46.0919 229.998L57.0633 229.951C58.5132 230.014 60.0174 230.115 61.4983 230.264C68.9883 231.006 76.9512 231.17 80.6962 231.271C84.4412 231.381 88.7134 231.693 90.3494 231.271C90.9387 231.115 91.3729 230.935 91.6908 230.771C91.6908 231.803 91.6908 233.427 91.6908 234.451C91.6908 236.037 94.172 239.88 95.0869 243.911C95.9941 247.942 97.9712 255.168 98.8396 259.785C99.708 264.394 103.414 273.612 104.36 278.221C105.306 282.83 106.725 291.649 106.725 296.977C106.725 302.305 108.066 304.445 108.144 308.343C108.221 312.242 109.245 325.99 108.144 330.678C107.043 335.365 106.88 341.325 107.593 346.973C108.307 352.621 108.384 358.496 107.671 360.566C106.958 362.636 106.012 362.948 106.33 364.855C106.647 366.761 109.005 372.245 108.656 373.362C108.307 374.471 106.523 375.838 106.523 375.838C106.523 375.838 103.825 380.869 98.1573 382.525C92.4894 384.173 89.0701 381.603 89.0701 381.603C89.0701 381.603 88.0311 380.916 88.2637 378.455C88.5041 375.994 88.1086 373.526 87.1627 372.252C86.2168 370.979 86.2943 368.917 87.7132 366.69C89.1321 364.464 89.2872 358.746 89.3725 355.246C89.4578 351.746 88.6669 342.606 88.7444 339.825C88.822 337.044 90.0005 331.56 89.7679 328.537C89.5276 325.514 88.9771 322.334 89.3725 320.428C89.7679 318.522 90.0005 315.976 89.5276 313.116C89.0546 310.257 88.5816 304.609 87.7908 302.945C86.9999 301.274 85.9764 299.844 85.8989 297.227C85.8213 294.61 81.0839 286.337 78.3236 282.205C75.5633 278.072 72.8806 273.94 70.4382 271.557C67.9958 269.175 67.9958 269.175 67.9958 269.175C67.9958 269.175 64.685 281.174 63.6538 286.181C62.6303 291.188 61.6224 306.578 62.2969 311.773C62.9715 316.96 61.3975 322.233 60.281 327.873C59.1645 333.513 59.8313 339.536 62.2194 347.434C64.6075 355.332 64.0105 359.996 64.0105 359.996C64.0105 359.996 65.5069 360.3 64.9099 364.206C64.3129 368.12 64.1655 369.776 65.4294 373.01C66.6932 376.244 66.8095 377.9 65.1502 381.283C62.3822 382.634 60.0096 380.767 57.0167 380.088C54.0238 379.408 52.2715 381.283 52.2715 381.283C52.2715 381.283 49.3097 382.338 47.8132 381.658C46.3168 380.978 45.8748 378.682 46.3943 375.846C46.9138 373.01 46.9138 373.01 46.9138 373.01C46.9138 373.01 45.6422 370.526 45.7973 367.214C45.9446 363.901 45.1227 359.011 43.5565 355.551C41.9903 352.09 40.6411 337.646 41.3157 330.576C42.0058 323.498 40.4318 315.296 42.2229 310.031Z" fill="#523332"/>
<path d="M57.0322 380.08C60.0251 380.76 62.3977 382.627 65.1658 381.275C65.1658 381.275 67.2592 382.189 68.4455 382.752C69.6318 383.322 69.8567 385.259 69.407 386.736C68.9573 388.212 66.5847 390.946 64.15 392.313C61.7154 393.68 61.6611 394.36 61.4363 396.071C61.2114 397.782 60.1957 399.313 58.5519 399.774C56.9082 400.235 50.9767 400.055 50.1858 398.063C49.3949 396.071 49.2786 392.657 50.1858 389.525C51.093 386.392 52.2793 381.267 52.2793 381.267C52.2793 381.267 54.0393 379.4 57.0322 380.08Z" fill="#ECC696"/>
<path d="M91.9312 239.232L80.6264 240.13C76.8659 240.388 73.0822 240.794 69.3372 240.708C65.5767 240.622 61.8162 240.232 58.0557 239.88L52.4111 239.325C50.527 239.146 48.6351 239.029 46.751 238.943C50.5115 239.349 54.2409 239.919 58.0014 240.38C61.7619 240.833 65.5224 241.224 69.3217 241.357C71.2291 241.403 73.1287 241.263 75.0128 241.13C76.9047 240.989 78.7888 240.833 80.6652 240.622C84.4334 240.232 88.1862 239.779 91.9312 239.232Z" fill="#E5E5E5"/>
<path d="M54.7992 230.6V230.584V230.576C54.807 230.49 54.8845 230.42 54.9775 230.428C56.0165 230.537 57.04 230.67 57.9859 230.779C56.9857 230.771 56.0475 230.771 55.1326 230.764C55.1249 232.271 55.1404 233.779 55.0938 235.287C55.0783 236.068 55.0473 236.857 55.0628 237.615C55.0628 237.982 55.1326 238.404 55.2334 238.427C55.3885 238.529 55.8614 238.536 56.2336 238.568C56.6291 238.599 57.0555 238.693 57.2183 238.591C57.3657 238.536 57.4664 238.138 57.4897 237.779C57.5285 237.021 57.5595 236.255 57.6215 235.498C57.7146 233.974 57.8541 232.412 57.9782 230.771C58.0169 232.256 58.0557 233.826 58.0557 235.42C58.0557 235.427 58.0557 235.427 58.0557 235.435C58.583 235.279 59.1025 235.248 59.6142 235.263C60.1182 235.295 60.6299 235.365 61.1261 235.56C61.1261 235.505 61.1261 235.459 61.1339 235.404C61.1804 233.849 61.3277 232.31 61.4596 230.764V230.748L61.4673 230.725C61.4906 230.639 61.5759 230.592 61.6534 230.615L64.3051 231.334L61.7774 230.967L61.6999 235.427C61.6844 236.201 61.6766 236.974 61.6999 237.732C61.7077 237.919 61.7154 238.115 61.7309 238.294C61.7464 238.529 61.7542 238.497 61.8395 238.599C62.0101 238.763 62.39 238.857 62.7311 238.888C63.0801 238.927 63.4522 238.911 63.7856 238.841C63.9407 238.81 64.1268 238.74 64.088 238.708C64.088 238.732 64.1113 238.607 64.1268 238.529C64.1423 238.451 64.15 238.357 64.1578 238.263C64.2198 237.521 64.2353 236.74 64.2508 235.974L64.2974 231.334C64.4912 232.873 64.623 234.42 64.6928 235.966C64.6928 236.037 64.7005 236.115 64.7005 236.185C66.8483 236.209 68.9805 236.302 71.1205 236.404C73.3303 236.498 75.5478 236.701 77.7421 236.771C79.9364 236.873 82.1384 236.732 84.3327 236.552C86.5269 236.349 88.7212 236.06 90.8999 235.677C88.7755 236.318 86.589 236.74 84.3869 237.044C82.1849 237.333 79.9519 237.466 77.7188 237.419C76.6023 237.38 75.5013 237.271 74.3925 237.185C73.2915 237.091 72.1828 237.021 71.0818 236.904C68.9495 236.701 66.825 236.49 64.7005 236.216C64.7316 236.912 64.7626 237.607 64.7083 238.326C64.7005 238.427 64.7005 238.521 64.6773 238.638C64.6463 238.755 64.6695 238.825 64.5765 239.021C64.5067 239.2 64.3361 239.263 64.2431 239.318C64.1268 239.372 64.026 239.404 63.9174 239.427C63.4987 239.521 63.0956 239.544 62.6769 239.513C62.2659 239.458 61.8395 239.427 61.413 239.083C61.3122 239.005 61.2114 238.865 61.1649 238.724C61.1029 238.552 61.1106 238.458 61.1029 238.357C61.0874 238.146 61.0874 237.958 61.0796 237.755C61.0719 237.083 61.0951 236.419 61.1184 235.763C60.5989 235.912 60.0949 235.943 59.5832 235.927C59.0714 235.896 58.5597 235.826 58.048 235.623C58.048 236.365 58.0712 237.099 58.0325 237.841C58.017 238.044 57.9937 238.255 57.9394 238.474C57.8851 238.685 57.7611 238.966 57.4897 239.122C57.2183 239.263 56.9702 239.255 56.7531 239.24L56.1716 239.193L55.5901 239.154C55.3885 239.13 55.1714 239.138 54.8923 238.982C54.5976 238.802 54.5046 238.482 54.4736 238.271C54.4425 238.044 54.4348 237.841 54.427 237.638C54.427 236.833 54.4736 236.06 54.5046 235.279C54.5821 233.717 54.7062 232.162 54.7992 230.6Z" fill="#E5E5E5"/>
<path d="M50.7751 234.49C52.0312 234.607 53.2795 234.779 54.5123 235.146C53.233 235.287 51.9769 235.24 50.7208 235.13C49.4647 235.005 48.2164 234.841 46.9836 234.474C48.2629 234.334 49.519 234.388 50.7751 234.49Z" fill="#E5E5E5"/>
<path d="M59.6219 249.911C59.5909 251.676 59.6995 253.441 59.8933 255.199C60.0871 256.957 60.3973 258.707 60.8625 260.433C61.1416 261.285 61.413 262.136 61.8627 262.941C61.9635 263.144 62.0798 263.347 62.2271 263.527C62.3667 263.706 62.4908 263.917 62.6458 264.073C62.9327 264.409 63.2351 264.73 63.5452 265.042C64.7703 266.308 66.0574 267.526 67.4608 268.581C66.8483 267.948 66.2357 267.323 65.6542 266.667C65.0572 266.026 64.4757 265.378 63.9097 264.706L63.0645 263.706C62.9095 263.542 62.8242 263.37 62.6924 263.199C62.5683 263.034 62.4675 262.855 62.3745 262.66C61.9713 261.917 61.7232 261.074 61.475 260.253C60.9788 258.59 60.6764 256.863 60.3818 255.137C60.0871 253.402 59.8545 251.66 59.6219 249.911Z" fill="#E5E5E5"/>
<path d="M89.2407 246.965L78.3546 247.325C76.5093 247.411 74.7182 247.458 72.9038 247.387C71.0973 247.325 69.2829 247.208 67.4841 247.012C67.3445 246.997 67.2127 247.098 67.1972 247.247C67.1972 247.27 67.1972 247.294 67.1972 247.309C67.5151 249.676 67.895 252.035 68.2827 254.395C68.6936 256.754 69.0891 259.105 69.7171 261.441C69.8954 262.011 70.066 262.644 70.446 263.175C70.8026 263.683 71.1903 264.144 71.5935 264.597C72.3921 265.495 73.2372 266.339 74.0901 267.175C75.8037 268.839 77.556 270.448 79.3393 272.026C79.4324 272.112 79.5642 272.12 79.6727 272.065C81.898 270.846 84.0923 269.596 86.24 268.245C87.31 267.565 88.38 266.855 89.3492 266.011C90.3107 265.167 91.2489 264.316 92.001 263.206C92.0242 263.167 92.0397 263.12 92.032 263.074V263.066L90.6363 254.973L89.2407 246.965ZM89.2407 246.965L90.427 255.09L91.621 263.12L91.6443 262.98C90.9542 263.956 89.9928 264.823 89.0391 265.628C88.0854 266.433 87.0231 267.104 85.9531 267.768C83.8132 269.089 81.6111 270.331 79.3936 271.526L79.727 271.565C77.9592 269.987 76.2146 268.37 74.5243 266.706C73.6792 265.878 72.8496 265.027 72.0587 264.159C71.6633 263.722 71.2911 263.277 70.9577 262.808C70.632 262.363 70.477 261.824 70.3064 261.261C69.6861 258.988 69.2674 256.629 68.8487 254.285C68.4378 251.942 68.0734 249.582 67.7089 247.223L67.4298 247.52C69.2519 247.684 71.0662 247.77 72.8961 247.801C74.7182 247.84 76.5558 247.762 78.3469 247.645L89.2407 246.965Z" fill="#E5E5E5"/>
<path d="M46.0764 270.682C47.5496 269.136 49.0305 267.604 50.4572 266.026C51.186 265.222 51.9304 264.433 52.6049 263.605C52.7755 263.402 52.9383 263.191 53.0701 262.98C53.1089 262.878 53.1477 262.777 53.1865 262.675C53.2252 262.566 53.2407 262.425 53.2717 262.3C53.3338 262.05 53.3648 261.785 53.388 261.519C53.4191 261.253 53.4501 260.988 53.4656 260.722C53.6129 258.574 53.6284 256.394 53.6284 254.231C53.6284 252.942 53.6051 251.653 53.5819 250.364C52.7988 250.528 51.9924 250.582 51.1938 250.59C50.3021 250.606 49.4104 250.551 48.5265 250.473C46.7587 250.301 44.9987 250.02 43.2774 249.504C45.0684 249.512 46.8208 249.676 48.5808 249.825L51.2093 250.082C51.9924 250.153 52.7833 250.239 53.5741 250.286C53.5586 249.497 53.5431 248.715 53.5276 247.926C50.3099 247.637 47.0844 247.333 43.8666 246.965C47.1774 247.083 50.4804 247.262 53.7835 247.458C53.8998 247.465 54.0006 247.559 54.0083 247.684V247.692C54.1401 249.871 54.1867 252.043 54.2254 254.223C54.2565 256.402 54.2642 258.582 54.0704 260.777C54.0549 261.05 54.0238 261.324 53.9773 261.597C53.9463 261.871 53.9075 262.144 53.8378 262.425C53.8067 262.566 53.7835 262.699 53.737 262.847L53.5431 263.292C53.3803 263.534 53.2097 263.753 53.0314 263.964C52.318 264.808 51.5815 265.597 50.8216 266.378C49.2941 267.925 47.7589 269.456 46.185 270.948L46.1772 270.956C46.1307 270.995 46.0687 271.003 46.0144 270.971C44.8126 270.175 43.5953 269.393 42.4012 268.581C43.6495 269.268 44.8591 269.979 46.0764 270.682Z" fill="#E5E5E5"/>
<path d="M88.6747 303.211C88.9383 303.773 89.388 304.164 89.8765 304.469C90.3727 304.758 90.9465 304.961 91.559 304.89C91.1093 304.476 90.6673 304.195 90.2021 303.914C89.7292 303.641 89.2639 303.383 88.6747 303.211Z" fill="#E5E5E5"/>
<path d="M105.422 364.784C104.926 365.3 104.383 365.729 103.817 366.112C103.244 366.479 102.654 366.808 102.011 367.026C101.383 367.245 100.724 367.432 100.049 367.503C99.3746 367.597 98.6846 367.612 97.9635 367.628C98.2969 367.745 98.6458 367.839 99.0025 367.917C99.3591 367.956 99.7158 368.034 100.08 368.011C100.809 368.042 101.538 367.87 102.236 367.636C103.608 367.12 104.833 366.112 105.422 364.784Z" fill="#E5E5E5"/>
<path d="M63.7081 361.238C63.2971 361.745 63.0568 362.284 62.8397 362.839C62.6381 363.402 62.4753 363.948 62.39 364.597C62.9172 364.198 63.2118 363.636 63.4367 363.066C63.646 362.495 63.7856 361.894 63.7081 361.238Z" fill="#E5E5E5"/>
<path d="M47.6194 373.909C47.5651 374.346 47.6969 374.682 47.8752 375.002C48.0691 375.299 48.3249 375.588 48.7436 375.705C48.7204 375.276 48.5963 374.963 48.418 374.658C48.2241 374.369 48.007 374.096 47.6194 373.909Z" fill="#E5E5E5"/>
<path d="M64.2276 380.291C63.0723 379.486 61.7852 378.908 60.4438 378.463C59.0947 378.033 57.668 377.814 56.2336 377.877C55.8769 377.916 55.5203 377.947 55.1636 378.018C54.8147 378.104 54.4503 378.166 54.1246 378.275C53.4578 378.486 52.791 378.682 52.132 378.908C50.8061 379.338 49.488 379.783 48.1854 380.291C49.5655 380.041 50.9146 379.713 52.2638 379.385C52.9383 379.228 53.6129 379.041 54.2875 378.869C54.6286 378.768 54.9465 378.721 55.2799 378.643C55.6056 378.588 55.9467 378.564 56.2801 378.525C57.6215 378.447 58.9861 378.635 60.3198 378.939C61.6379 379.275 62.9482 379.728 64.2276 380.291Z" fill="#E5E5E5"/>
<path d="M107.345 370.557C106.446 372.331 105.337 373.979 104.058 375.463C102.755 376.916 101.267 378.213 99.5142 379.033C97.7929 379.861 95.8157 380.174 93.8928 380.197C92.9314 380.189 91.9622 380.041 91.0628 379.705C90.1634 379.361 89.3182 378.807 88.7522 377.986C89.1942 378.893 90.0393 379.549 90.9387 380.002C91.8614 380.424 92.8694 380.635 93.8773 380.705C94.8853 380.76 95.901 380.689 96.8857 380.502C97.8782 380.346 98.8629 380.033 99.7933 379.627C101.615 378.713 103.174 377.354 104.438 375.791C105.05 374.994 105.616 374.166 106.113 373.299C106.585 372.401 107.027 371.502 107.345 370.557Z" fill="#E5E5E5"/>
<path d="M76.6411 214.882C75.2997 215.663 73.9506 216.398 72.5782 217.093C71.1981 217.772 69.8179 218.429 68.399 219.007C66.9956 219.616 65.5457 220.1 64.088 220.569C63.3592 220.796 62.6226 221.007 61.8705 221.171C61.1339 221.397 60.3663 221.483 59.6142 221.671C61.1572 221.624 62.7079 221.428 64.2198 221.053C65.7318 220.694 67.2127 220.21 68.6471 219.608C70.0815 218.999 71.4772 218.327 72.8186 217.53C74.1522 216.741 75.4548 215.882 76.6411 214.882Z" fill="#E5E5E5"/>
<path d="M37.9894 216.577C36.4387 216.702 34.919 217.077 33.4768 217.702C32.748 218.015 32.0734 218.444 31.4454 218.89C30.8096 219.35 30.1893 219.804 29.6543 220.444L29.7861 220.382C29.2976 220.436 28.8014 220.475 28.3129 220.554C28.8014 220.632 29.2976 220.671 29.7861 220.725C29.8171 220.725 29.8481 220.718 29.8791 220.702L29.9179 220.671C30.4684 220.21 31.1352 219.796 31.771 219.397C32.4223 218.991 33.0581 218.608 33.7404 218.288C35.1051 217.64 36.5395 217.124 37.9894 216.577Z" fill="#E5E5E5"/>
<path d="M36.5162 208.203C35.6633 208.726 34.9345 209.344 34.2056 209.953C33.4768 210.578 32.7867 211.195 32.0424 211.859C33.0271 211.648 33.8722 211.07 34.6166 210.445C35.3609 209.804 36.0277 209.078 36.5162 208.203Z" fill="#E5E5E5"/>
<path d="M36.5162 202.742C36.2836 201.696 35.8882 200.696 35.4385 199.727C34.9888 198.758 34.4615 197.829 33.8645 196.938C33.2597 196.055 32.6239 195.196 31.8951 194.415C31.5384 194.017 31.1585 193.649 30.7786 193.274C30.3831 192.915 29.9799 192.571 29.5612 192.243C30.2125 193.087 30.8871 193.892 31.5074 194.735C32.1354 195.571 32.748 196.423 33.3217 197.298C33.911 198.157 34.446 199.063 34.9888 199.961C35.5393 200.868 36.0433 201.789 36.5162 202.742Z" fill="#E5E5E5"/>
<path d="M30.6778 181.377C30.9879 182.978 31.3911 184.556 31.8098 186.134C32.2285 187.705 32.7247 189.259 33.2054 190.822C33.7404 192.36 34.2677 193.907 34.888 195.415C35.516 196.915 36.1751 198.43 37.0977 199.782C36.7643 199.04 36.4387 198.297 36.1673 197.532C35.8804 196.774 35.609 196.009 35.3454 195.243C34.8259 193.704 34.2987 192.173 33.8102 190.626L32.275 186.002C31.7633 184.447 31.2438 182.908 30.6778 181.377Z" fill="#E5E5E5"/>
<path d="M57.3036 176.127C56.2491 175.651 55.1869 175.213 54.1169 174.776L50.9224 173.479L47.7202 172.206C46.6502 171.784 45.5957 171.339 44.5102 170.932C45.4716 171.581 46.4873 172.143 47.5186 172.659C48.5498 173.182 49.612 173.643 50.682 174.081C51.7598 174.503 52.8375 174.909 53.9463 175.245C55.0551 175.588 56.1638 175.909 57.3036 176.127Z" fill="#E5E5E5"/>
<path d="M49.2011 175.549C48.1931 174.971 47.1852 174.432 46.1695 173.885L43.1455 172.245L37.0977 168.933C38.8501 170.456 40.8117 171.706 42.8432 172.815C43.8666 173.362 44.8979 173.878 45.9601 174.338C47.0146 174.784 48.0923 175.213 49.2011 175.549Z" fill="#E5E5E5"/>
<path d="M44.8824 179.893C44.4869 179.252 43.9054 178.799 43.2696 178.455C42.6261 178.127 41.8895 177.908 41.1451 178.033C41.7887 178.408 42.3702 178.705 42.975 179.026C43.5798 179.338 44.1845 179.658 44.8824 179.893Z" fill="#E5E5E5"/>
<path d="M87.2945 186.627C86.2711 185.673 85.077 184.955 83.8132 184.377C82.5493 183.83 81.1692 183.4 79.7658 183.494C81.0916 183.9 82.3167 184.408 83.5495 184.963C84.7901 185.517 86.0074 186.103 87.2945 186.627Z" fill="#E5E5E5"/>
<path d="M86.8758 187.845C86.4726 187.58 86.0307 187.54 85.6042 187.58C85.1855 187.642 84.7281 187.798 84.4567 188.204C84.9297 188.267 85.2863 188.259 85.6818 188.22C86.0694 188.165 86.4571 188.087 86.8758 187.845Z" fill="#E5E5E5"/>
<path d="M88.2947 164.995C88.3413 166.23 88.4033 167.456 88.4421 168.683C88.4731 169.909 88.5041 171.128 88.4963 172.354C88.5041 173.573 88.4576 174.792 88.411 176.018C88.349 177.237 88.2172 178.455 88.0854 179.682C88.4808 178.51 88.7367 177.291 88.8995 176.065C89.0623 174.838 89.1321 173.596 89.1399 172.354C89.1321 171.112 89.0778 169.878 88.9305 168.651C88.791 167.417 88.6049 166.191 88.2947 164.995Z" fill="#E5E5E5"/>
<path d="M83.8209 166.269C83.3867 164.847 82.6579 163.542 81.7584 162.363C81.301 161.777 80.7815 161.23 80.1845 160.777C79.5952 160.324 78.8896 159.957 78.1453 159.902C78.8198 160.199 79.3548 160.675 79.8588 161.16C80.355 161.66 80.828 162.191 81.2545 162.761C82.1461 163.886 82.9448 165.081 83.8209 166.269Z" fill="#E5E5E5"/>
<path d="M86.1935 190.282C85.077 192.751 84.666 195.485 84.4877 198.18C84.3094 200.891 84.5808 203.61 84.8832 206.289C85.2398 208.968 85.674 211.632 86.2013 214.273C86.7363 216.913 87.3178 219.546 88.0389 222.147C87.5814 219.491 87.1162 216.843 86.6897 214.187C86.2633 211.531 85.8291 208.875 85.5267 206.211C85.17 203.547 84.9142 200.883 84.9839 198.204C85.0072 196.868 85.108 195.532 85.3018 194.204C85.4724 192.876 85.7438 191.556 86.1935 190.282Z" fill="#E5E5E5"/>
<path d="M73.3535 155.668C72.9891 155.145 72.5317 154.793 72.0432 154.488C71.547 154.192 71.0275 153.949 70.3917 153.848C70.7406 154.363 71.2058 154.715 71.702 155.027C72.206 155.324 72.7333 155.582 73.3535 155.668Z" fill="#E5E5E5"/>
<path d="M68.996 155.012C67.9881 154.512 66.9258 154.137 65.8558 153.801C64.7858 153.457 63.6848 153.207 62.5838 153.004C61.475 152.809 60.3508 152.684 59.2265 152.645C58.1022 152.614 56.9702 152.676 55.8614 152.887C56.9857 152.942 58.0867 153.012 59.1877 153.137C60.2887 153.285 61.382 153.434 62.4675 153.637C63.5608 153.824 64.6385 154.059 65.7318 154.278C66.8173 154.512 67.895 154.762 68.996 155.012Z" fill="#E5E5E5"/>
<path d="M122.938 164.995C121.814 163.785 120.395 162.886 118.883 162.23C118.123 161.902 117.332 161.66 116.518 161.504C115.711 161.332 114.874 161.316 114.06 161.371C114.859 161.558 115.634 161.738 116.394 161.988C117.154 162.238 117.898 162.496 118.627 162.824C120.1 163.441 121.511 164.191 122.938 164.995Z" fill="#E5E5E5"/>
<path d="M125.489 164.995C124.713 163.941 123.705 163.089 122.597 162.41C122.031 162.082 121.449 161.785 120.813 161.597C120.185 161.402 119.518 161.308 118.867 161.379C120.108 161.746 121.185 162.324 122.263 162.972C123.349 163.605 124.38 164.316 125.489 164.995Z" fill="#E5E5E5"/>
<path d="M121.581 168.042C121.023 166.831 120.209 165.777 119.278 164.839C118.332 163.933 117.216 163.097 115.921 162.785C116.991 163.558 117.913 164.402 118.828 165.3C119.743 166.198 120.619 167.128 121.581 168.042Z" fill="#E5E5E5"/>
<path d="M130.273 157.644C130.203 156.129 129.59 154.637 128.59 153.449C127.613 152.223 126.132 151.481 124.698 151.036C123.248 150.59 121.728 150.317 120.201 150.356C118.704 150.411 117.092 150.668 115.913 151.653C116.564 151.278 117.278 151.059 118.007 150.965C118.728 150.848 119.464 150.817 120.201 150.856C121.666 150.934 123.108 151.215 124.512 151.661C125.923 152.082 127.226 152.723 128.226 153.785C128.73 154.301 129.156 154.903 129.497 155.559C129.846 156.207 130.102 156.91 130.273 157.644Z" fill="#E5E5E5"/>
<path d="M74.1522 132.061C73.8033 131.85 73.4078 131.717 72.9969 131.639C72.586 131.576 72.1052 131.6 71.702 131.889C71.2833 132.17 71.0973 132.67 71.043 133.1C70.9965 133.326 71.012 133.545 71.0197 133.756C71.0197 133.974 71.0585 134.185 71.0895 134.388C71.2523 135.209 71.4617 136.013 71.9657 136.74C72.206 137.091 72.5937 137.451 73.0899 137.451C73.5707 137.435 73.9351 137.13 74.1522 136.802C73.8343 137.037 73.4466 137.224 73.1132 137.138C72.7875 137.068 72.5549 136.787 72.3844 136.466C72.0432 135.818 71.8571 135.029 71.7175 134.279C71.6788 134.092 71.64 133.904 71.64 133.717C71.6245 133.529 71.6168 133.342 71.64 133.17C71.6478 132.81 71.7718 132.49 72.0044 132.279C72.4929 131.865 73.3846 131.904 74.1522 132.061Z" fill="#101E39"/>
<path d="M72.0509 142.794C71.9889 142.38 71.8261 142.091 71.6323 141.825C71.4229 141.568 71.1825 141.333 70.7871 141.193C70.7639 141.622 70.9189 141.943 71.1283 142.224C71.3454 142.489 71.6245 142.732 72.0509 142.794Z" fill="#101E39"/>
<path d="M128.42 147.083C128.42 147.083 126.683 144.958 122.504 144.919C118.324 144.88 116.929 146.481 116.929 146.481L116.859 143.646C116.859 143.646 121.759 142.864 124.853 144.013C126.985 144.81 128.21 146.067 128.21 146.067L128.42 147.083Z" fill="#101E39"/>
</g>
<path d="M161.499 127V115.364H165.863C166.757 115.364 167.507 115.519 168.113 115.83C168.723 116.14 169.183 116.576 169.494 117.136C169.808 117.693 169.965 118.343 169.965 119.085C169.965 119.831 169.806 120.479 169.488 121.028C169.174 121.574 168.71 121.996 168.096 122.295C167.482 122.591 166.728 122.739 165.835 122.739H162.727V120.989H165.55C166.073 120.989 166.501 120.917 166.835 120.773C167.168 120.625 167.414 120.411 167.573 120.131C167.736 119.847 167.817 119.498 167.817 119.085C167.817 118.672 167.736 118.32 167.573 118.028C167.41 117.733 167.162 117.509 166.829 117.358C166.496 117.203 166.066 117.125 165.539 117.125H163.607V127H161.499ZM167.511 121.727L170.391 127H168.039L165.21 121.727H167.511ZM171.906 127V115.364H179.36V117.131H174.013V120.29H178.849V122.057H174.013V127H171.906ZM183.388 115.364V127H181.281V115.364H183.388ZM189.614 127H185.671V115.364H189.694C190.849 115.364 191.842 115.597 192.671 116.062C193.504 116.525 194.145 117.189 194.592 118.057C195.039 118.924 195.262 119.962 195.262 121.17C195.262 122.383 195.037 123.424 194.586 124.295C194.139 125.167 193.493 125.835 192.648 126.301C191.808 126.767 190.796 127 189.614 127ZM187.779 125.176H189.512C190.323 125.176 190.999 125.028 191.54 124.733C192.082 124.434 192.489 123.989 192.762 123.398C193.035 122.803 193.171 122.061 193.171 121.17C193.171 120.28 193.035 119.542 192.762 118.955C192.489 118.364 192.086 117.922 191.552 117.631C191.022 117.335 190.362 117.188 189.575 117.188H187.779V125.176ZM200.722 117.131V115.364H210.006V117.131H206.41V127H204.319V117.131H200.722ZM213.029 127.176C212.476 127.176 211.978 127.078 211.535 126.881C211.095 126.68 210.747 126.384 210.489 125.994C210.236 125.604 210.109 125.123 210.109 124.551C210.109 124.059 210.2 123.652 210.381 123.33C210.563 123.008 210.811 122.75 211.126 122.557C211.44 122.364 211.794 122.218 212.188 122.119C212.586 122.017 212.997 121.943 213.421 121.898C213.933 121.845 214.347 121.797 214.665 121.756C214.984 121.71 215.215 121.642 215.359 121.551C215.506 121.456 215.58 121.311 215.58 121.114V121.08C215.58 120.652 215.453 120.32 215.2 120.085C214.946 119.85 214.58 119.733 214.103 119.733C213.599 119.733 213.2 119.843 212.904 120.062C212.612 120.282 212.415 120.542 212.313 120.841L210.393 120.568C210.544 120.038 210.794 119.595 211.143 119.239C211.491 118.879 211.917 118.61 212.421 118.432C212.925 118.25 213.482 118.159 214.092 118.159C214.512 118.159 214.931 118.208 215.347 118.307C215.764 118.405 216.145 118.568 216.489 118.795C216.834 119.019 217.111 119.324 217.319 119.71C217.531 120.097 217.637 120.58 217.637 121.159V127H215.66V125.801H215.592C215.467 126.044 215.29 126.271 215.063 126.483C214.84 126.691 214.558 126.86 214.217 126.989C213.879 127.114 213.484 127.176 213.029 127.176ZM213.563 125.665C213.976 125.665 214.334 125.583 214.637 125.42C214.94 125.254 215.173 125.034 215.336 124.761C215.503 124.489 215.586 124.191 215.586 123.869V122.841C215.522 122.894 215.412 122.943 215.256 122.989C215.105 123.034 214.934 123.074 214.745 123.108C214.556 123.142 214.368 123.172 214.183 123.199C213.997 123.225 213.836 123.248 213.7 123.267C213.393 123.309 213.118 123.377 212.876 123.472C212.633 123.566 212.442 123.699 212.302 123.869C212.162 124.036 212.092 124.252 212.092 124.517C212.092 124.896 212.23 125.182 212.506 125.375C212.783 125.568 213.135 125.665 213.563 125.665ZM223.501 130.455C222.762 130.455 222.128 130.354 221.597 130.153C221.067 129.956 220.641 129.691 220.319 129.358C219.997 129.025 219.773 128.655 219.648 128.25L221.501 127.801C221.584 127.972 221.705 128.14 221.864 128.307C222.023 128.477 222.237 128.617 222.506 128.727C222.779 128.841 223.122 128.898 223.535 128.898C224.118 128.898 224.601 128.756 224.984 128.472C225.366 128.191 225.558 127.729 225.558 127.085V125.432H225.455C225.349 125.644 225.194 125.862 224.989 126.085C224.789 126.309 224.522 126.496 224.188 126.648C223.859 126.799 223.444 126.875 222.944 126.875C222.273 126.875 221.665 126.718 221.12 126.403C220.578 126.085 220.147 125.612 219.825 124.983C219.506 124.35 219.347 123.559 219.347 122.608C219.347 121.65 219.506 120.841 219.825 120.182C220.147 119.519 220.58 119.017 221.126 118.676C221.671 118.331 222.279 118.159 222.95 118.159C223.461 118.159 223.881 118.246 224.211 118.42C224.544 118.591 224.809 118.797 225.006 119.04C225.203 119.278 225.353 119.504 225.455 119.716H225.569V118.273H227.597V127.142C227.597 127.888 227.419 128.506 227.063 128.994C226.707 129.483 226.22 129.848 225.603 130.091C224.986 130.333 224.285 130.455 223.501 130.455ZM223.518 125.261C223.953 125.261 224.325 125.155 224.631 124.943C224.938 124.731 225.171 124.426 225.33 124.028C225.489 123.631 225.569 123.153 225.569 122.597C225.569 122.047 225.489 121.566 225.33 121.153C225.175 120.741 224.944 120.42 224.637 120.193C224.334 119.962 223.961 119.847 223.518 119.847C223.059 119.847 222.677 119.966 222.37 120.205C222.063 120.443 221.832 120.771 221.677 121.188C221.522 121.6 221.444 122.07 221.444 122.597C221.444 123.131 221.522 123.598 221.677 124C221.836 124.398 222.069 124.708 222.376 124.932C222.686 125.152 223.067 125.261 223.518 125.261Z" fill="#0DA587"/>
</g>
<defs>
<clipPath id="clip0_52_15613">
<rect width="145" height="295" fill="white" transform="matrix(-1 0 0 1 160 107)"/>
</clipPath>
</defs>
</svg>
